<svg version="1.2" xmlns="http://www.w3.org/2000/svg" viewBox="0 0 3384 1290" width="3384" height="1290">
	<style>
		.s0 { opacity: 1;fill: #245d65 } 
		.s1 { fill: #9fa341 } 
		.s2 { fill: #fafcfa } 
	</style>
	<g id="Background">
		<path id="Path 1" class="s0" d="m892 242.98c-1.33 0.84-1.41 12.69-0.75 101.73 0.41 55.44 0.74 230.73 0.75 389.54v288.75h76v-170c10.8-10.46 14.06-13.37 14.22-13.22 0.15 0.16 5.68-5.37 12.28-12.29 6.6-6.92 12.45-12.54 13-12.5 0.55 0.05 5.66-4.77 11.35-10.7 5.69-5.94 10-10.12 9.58-9.29-0.41 0.83 4.6-3.63 11.16-9.9 6.55-6.27 14.83-14.39 18.41-18.04 3.58-3.65 7.74-7.41 9.25-8.35l2.75-1.71c8.29 12.01 11.66 16.62 12.84 18 1.18 1.37 4.73 5.89 7.9 10.04 3.17 4.15 6.33 8.2 7.03 9 0.7 0.8 5.13 6.63 9.85 12.96 4.73 6.33 10.12 13.64 11.99 16.25 1.86 2.61 3.84 4.75 4.39 4.75 0.55 0 1 0.45 1 1 0 0.55 6.15 8.76 13.66 18.25 7.51 9.49 14.15 17.7 14.75 18.25 0.6 0.55 2.44 2.97 4.09 5.37 1.65 2.4 3.79 4.76 4.75 5.25 0.96 0.48 1.64 1.28 1.5 1.78-0.14 0.49 5.49 8.37 12.5 17.5 7.01 9.13 13.2 16.6 13.75 16.6 0.55 0 1.02 0.56 1.03 1.25 0.02 0.69 2.41 4.17 5.32 7.75 2.9 3.58 8.36 10.55 12.12 15.5 3.77 4.95 7.68 9.9 8.69 11 1.02 1.1 5.11 6.18 9.1 11.29 3.98 5.11 7.58 9.27 7.99 9.25 0.41-0.02 0.75 0.41 0.75 0.96 0 0.55 3.9 6.06 8.67 12.25 4.77 6.19 9.83 12.3 11.25 13.57 1.42 1.28 1.91 2.03 1.08 1.68-0.83-0.35-0.15 0.56 1.5 2.04 1.65 1.47 2.44 2.41 1.75 2.07-0.69-0.34 2.72 4.45 7.58 10.64l8.84 11.25c75.61 0.41 91.33 0.16 91.33-0.5 0-0.55-0.84-1.56-1.87-2.25-1.02-0.69-1.81-1.54-1.75-1.89 0.07-0.36-5.5-7.97-12.38-16.93-6.87-8.95-28.18-36.11-47.35-60.35-19.16-24.24-39.55-50.16-45.31-57.58-5.76-7.42-13.93-17.98-18.15-23.46-4.23-5.48-8.7-11-9.94-12.25-1.24-1.26-2.25-2.52-2.25-2.79 0-0.27-3.71-5.15-8.25-10.82-4.54-5.68-10.32-12.99-12.86-16.25-2.53-3.26-14.55-18.76-26.71-34.43-12.16-15.67-23.27-29.85-24.69-31.5-1.41-1.65-2.55-3.11-2.53-3.25 0.02-0.14-6.71-8.91-14.96-19.5-8.25-10.59-14.89-20-14.75-20.92 0.14-0.92 8.61-9.47 18.84-19 10.22-9.53 29.12-27.3 42-39.48 12.87-12.19 30.38-29.06 38.91-37.49 8.53-8.44 17.08-16.62 19-18.18 1.92-1.57 13.85-12.85 26.5-25.08 12.65-12.23 29.74-28.5 37.99-36.17 8.24-7.66 20.39-19.05 27-25.31 6.6-6.25 13.47-13 15.25-15 1.77-1.99 3.22-3.17 3.21-2.62-0.01 0.55 0.89 0.1 2-1 1.11-1.1 1.8-2.34 1.53-2.75-0.26-0.41-22.08-0.75-48.48-0.75-31.67 0-47.83 0.34-47.5 1 0.28 0.55-0.17 1.23-1 1.5-0.95 0.32-1.28 0.04-0.91-0.75 0.33-0.69-3.27 2.69-8 7.5-4.72 4.81-8.59 8.41-8.59 8-0.01-0.41-3.49 2.62-7.73 6.75-4.25 4.12-12.43 12.23-18.17 18-5.74 5.77-10.11 9.83-9.7 9 0.4-0.83-3.82 3.23-9.39 9-5.56 5.77-10.56 10.5-11.11 10.5-0.54 0-7.14 6.08-14.64 13.5-7.51 7.42-17.62 17.55-22.47 22.5-4.84 4.95-8.8 8.55-8.79 8 0-0.55-4.56 3.73-10.15 9.5-5.58 5.77-9.81 9.83-9.38 9 0.42-0.83-4.08 3.45-10 9.5-5.92 6.05-10.42 10.33-10.01 9.5 0.41-0.83-4.75 4.12-11.47 11-6.72 6.87-11.64 11.6-10.94 10.5 0.7-1.1-4.76 4.06-12.14 11.47-7.37 7.4-13.75 13.37-14.16 13.25-0.41-0.12-5.03 4.51-10.25 10.28-5.22 5.77-9.95 10.27-10.5 10-0.55-0.27-5.16 3.98-10.25 9.46-5.09 5.47-9.57 9.86-9.95 9.75-0.39-0.12-8.18 7.21-17.33 16.29-9.15 9.08-17.95 18.19-19.55 20.25-1.61 2.06-3.37 3.52-3.92 3.25-0.66-0.33-1-88.17-1-260.5v-260c-58.95 0.02-75.13 0.43-76 0.98zm-432.5 18.11c-9.35 0.44-20.37 1.27-24.5 1.86-4.12 0.59-8.18 1.11-9 1.15-0.82 0.05-6.9 0.96-13.5 2.02-6.6 1.07-12.68 2.22-13.5 2.57-0.82 0.34-1.84 0.56-2.25 0.47-0.41-0.09-5.36 1-11 2.42-5.64 1.41-14.52 4.08-19.75 5.91-5.23 1.84-13.32 4.89-18 6.79-4.68 1.9-12.32 5.38-17 7.73-4.68 2.35-12.1 6.5-16.5 9.22-4.4 2.73-8.11 5.36-8.25 5.86-0.14 0.5-0.7 0.91-1.25 0.91-0.55 0-2.57 1.57-4.5 3.5-1.93 1.92-3.95 3.27-4.5 3-0.55-0.27-1.56 0.29-2.25 1.25-1.14 1.6-1.1 1.62 0.54 0.25 0.99-0.83 1.79-1.27 1.78-1-0.01 0.27-1.94 2.06-4.29 3.96-2.35 1.9-3.64 2.58-2.85 1.5 0.79-1.08-0.56 0.1-3 2.62-2.44 2.51-3.76 3.64-2.95 2.5 0.81-1.15-0.21-0.51-2.27 1.42-2.06 1.92-3.76 3.73-3.77 4-0.02 0.27 0.78-0.18 1.77-1 1.64-1.37 1.68-1.35 0.54 0.25-0.69 0.96-1.62 1.64-2.08 1.5-0.45-0.14-3.52 2.45-6.82 5.75-3.3 3.3-8.69 9.6-11.97 14-3.29 4.4-7.81 10.92-10.04 14.5-2.23 3.57-5.86 10.1-8.05 14.5-2.19 4.4-5.16 11.15-6.6 15-1.44 3.85-3.75 11.05-5.15 16-1.39 4.95-2.31 9.23-2.04 9.5 0.26 0.27 0.04 0.95-0.51 1.5-0.55 0.55-1.11 3.77-1.24 7.16-0.15 3.56-0.64 5.88-1.18 5.5-0.57-0.4-0.65 1.68-0.21 5.34 0.53 4.35 0.44 5.59-0.34 4.5-0.81-1.15-1.07-0.32-1.1 3.5-0.02 2.75-0.28 10.17-0.56 16.5-0.29 6.32 0 16.45 0.64 22.5 0.64 6.05 2.3 16.4 3.69 23 1.38 6.6 3.87 15.83 5.53 20.5 1.66 4.67 4.98 12.44 7.4 17.25 2.41 4.81 6.03 11.34 8.05 14.5 2.01 3.16 5.7 8.23 8.19 11.25 2.48 3.02 7.7 8.77 11.58 12.76 3.88 3.99 7.4 7.25 7.81 7.25 0.41-0.01 2.44 1.68 4.5 3.74 2.06 2.06 6.66 6 10.23 8.75 3.56 2.75 6.07 4.33 5.58 3.5-0.49-0.83 0.2-0.36 1.53 1.03 1.32 1.4 6.46 5.05 11.41 8.11 4.95 3.07 13.27 7.73 18.5 10.36 5.23 2.63 12.99 6.29 17.25 8.14 4.26 1.85 7.99 3.02 8.28 2.61 0.29-0.41 0.51-0.19 0.5 0.5-0.02 0.69 0.65 1.02 1.47 0.75 0.82-0.27 1.5-0.05 1.5 0.5 0 0.55 2.36 1.85 5.25 2.9 2.89 1.04 6.15 2.05 7.25 2.25 1.1 0.19 2.23 0.63 2.5 0.97 0.27 0.34 4.55 2.01 9.5 3.71 4.95 1.71 17.1 5.41 27 8.23 9.9 2.82 24.98 6.92 33.5 9.1 8.52 2.19 22.48 5.72 31 7.85 8.52 2.14 24.95 6.22 36.5 9.08 11.55 2.87 21.79 5.25 22.75 5.31 0.96 0.05 1.75 0.44 1.75 0.85 0 0.41 0.56 0.76 1.25 0.76 0.69 0.01 8.45 2.32 17.25 5.13 8.8 2.81 22.08 7.57 29.5 10.57 7.42 3.01 19.13 8.37 26 11.91 6.88 3.54 16.55 9.33 21.5 12.88 4.95 3.54 13.04 10.39 17.99 15.22 4.94 4.83 8.3 8.33 7.46 7.78-0.84-0.55-0.16 0.28 1.51 1.83 1.67 1.56 2.48 2.58 1.79 2.25-0.86-0.4-0.79 0.19 0.25 1.92 0.83 1.37 1.73 2.5 2 2.5 0.27 0 0.24-0.56-0.07-1.25-0.32-0.69 0.12-0.35 0.97 0.75 0.85 1.1 1.33 2.34 1.07 2.75-0.26 0.41 0.06 0.75 0.7 0.75 0.64 0 0.86 0.34 0.49 0.75-0.36 0.41 0.4 2.55 1.7 4.75 1.3 2.2 3.52 6.92 4.95 10.5 1.42 3.58 3.26 9.2 4.08 12.5 0.83 3.3 1.77 7.58 2.1 9.5 0.32 1.92 0.85 9.12 1.18 16 0.32 6.9 0.09 16.98-0.52 22.5-0.6 5.5-2.01 13.26-3.13 17.25-1.11 3.99-1.68 7.26-1.27 7.27 0.41 0 0.3 0.34-0.26 0.75-0.55 0.4-2.08 3.43-3.38 6.73-1.3 3.3-4.45 9.55-6.99 13.89-2.54 4.34-4.96 8.05-5.37 8.25-0.41 0.2-0.52 0.81-0.25 1.36 0.27 0.55 0.16 0.99-0.25 0.98-0.41-0.01-3.23 2.99-6.25 6.68-3.02 3.68-6.96 8.42-8.75 10.52-1.79 2.1-3.7 3.59-4.25 3.32-0.55-0.27-2.12 1.08-3.5 3-1.37 1.92-2.95 3.27-3.5 3-0.55-0.27-1-0.05-1 0.5 0 0.55-0.45 1-1 1-0.55 0-4.04 1.96-7.75 4.36-3.71 2.4-10.58 6.34-15.25 8.76-4.67 2.42-10.98 5.4-14 6.63-3.02 1.22-8.87 3.37-13 4.77-4.12 1.41-11.55 3.48-16.5 4.6-4.95 1.12-11.48 2.45-14.5 2.97-3.02 0.51-11.8 1.61-19.5 2.43-7.7 0.82-22.77 1.49-33.5 1.49-10.73 0-24.23-0.46-30-1.03-5.77-0.57-15.23-1.73-21-2.56-5.77-0.84-14.55-2.42-19.5-3.51-4.95-1.09-13.95-3.38-20-5.08-6.05-1.7-13.81-4.16-17.25-5.46-3.44-1.31-6.23-2.03-6.21-1.62 0.03 0.41-0.67 0.08-1.54-0.75-0.87-0.83-1.58-1.05-1.56-0.5 0.02 0.63-0.24 0.62-0.71-0.03-0.4-0.57-3.88-2.34-7.73-3.94-3.85-1.59-12.62-5.54-19.5-8.77-6.87-3.23-17-8.65-22.5-12.04-5.5-3.39-13.6-8.59-18-11.57-4.4-2.97-10.81-7.59-14.25-10.28-3.44-2.68-6.36-4.85-6.5-4.83-0.14 0.02-2.93-2.34-6.21-5.25-3.28-2.91-12.73-11.66-21-19.43-13.22-12.44-15.28-14.02-17.04-13.09-1.67 0.88-1.83 0.81-1-0.41 0.55-0.81-0.12-0.12-1.5 1.53-1.37 1.64-5.65 6.63-9.5 11.09-3.85 4.45-12.4 14.55-19 22.44-6.6 7.89-12.04 14.63-12.09 14.97-0.04 0.33-0.38 1.4-0.75 2.36-0.36 0.96-1.11 1.52-1.66 1.25-0.55-0.28-0.99-0.16-0.98 0.25 0.01 0.41 2.15 2.96 4.75 5.65 2.6 2.7 6.98 7.16 9.73 9.9 2.75 2.75 9.95 9.35 16 14.68 6.05 5.33 14.82 12.6 19.5 16.16 4.68 3.56 11.88 8.77 16 11.58 4.13 2.8 11.55 7.54 16.5 10.52 4.95 2.99 14.63 8.39 21.5 12.01 6.88 3.63 17.45 8.7 23.5 11.28 6.05 2.58 15.95 6.48 22 8.67 6.05 2.18 14.38 5.09 18.5 6.45 4.13 1.37 13.35 4.02 20.5 5.89 7.15 1.86 19.75 4.56 28 5.99 8.25 1.43 20.18 3.22 26.5 3.99 6.32 0.76 19.15 1.92 28.5 2.58 10.2 0.71 24.8 0.93 36.5 0.56 10.73-0.34 24.23-1.09 30-1.66 5.77-0.58 17.48-2.19 26-3.59 8.52-1.4 20.67-3.84 27-5.43 6.33-1.58 16.23-4.52 22-6.52 5.77-2.01 14.77-5.46 20-7.68 5.23-2.21 13.55-6.06 18.5-8.54 4.95-2.49 12.6-6.75 17-9.48 4.4-2.72 11.83-7.81 16.5-11.29 4.67-3.49 9.06-7.27 9.75-8.41 0.69-1.13 1.81-2.06 2.5-2.05 0.69 0 4.73-3.49 8.99-7.75 4.26-4.27 7.75-8.32 7.75-9.01 0.01-0.69 0.8-1.64 1.76-2.12 0.96-0.47 4.21-3.96 7.21-7.75 3-3.78 7.69-10.48 10.42-14.88 2.73-4.4 7.11-12.5 9.73-18 2.62-5.5 6.33-15.17 8.25-21.5 1.91-6.33 4.4-16 5.53-21.5 1.13-5.5 2.51-15.17 3.07-21.5 0.56-6.33 1.03-16.23 1.04-22 0.01-5.78-0.47-15.23-1.05-21-0.59-5.78-1.94-15-3-20.5-1.06-5.5-2.65-12.48-3.53-15.5-0.88-3.03-2.97-9.33-4.64-14-1.67-4.67-5.23-12.89-7.91-18.25-2.68-5.36-5.32-9.75-5.87-9.75-0.55 0-0.89-0.34-0.76-0.75 0.14-0.41-0.76-2.44-2-4.5-1.23-2.06-2.69-3.75-3.24-3.75-0.55 0-1-0.67-1-1.5 0-0.83-1.15-2.29-2.56-3.25-1.41-0.96-2.73-2.42-2.95-3.25-0.21-0.83-5.25-6.47-11.19-12.55-5.94-6.08-15.07-14.23-20.3-18.13-5.23-3.89-13.55-9.54-18.5-12.55-4.95-3.02-11.02-6.52-13.5-7.78-2.48-1.26-4.73-2.18-5-2.05-0.27 0.13-0.73-0.15-1-0.6-0.27-0.46-2.75-1.91-5.5-3.22-2.75-1.3-8.49-3.89-12.75-5.75-4.26-1.85-7.73-3.03-7.71-2.62 0.03 0.41-0.53 0.19-1.25-0.49-0.71-0.69-1.64-0.91-2.07-0.5-0.43 0.41-0.76 0.18-0.75-0.51 0.02-0.69-1.32-1.48-2.97-1.75-1.65-0.28-3.34-0.46-3.75-0.41-0.41 0.04-0.98-0.33-1.25-0.84-0.27-0.5-5.45-2.63-11.5-4.72-6.05-2.08-11.67-3.9-12.5-4.02-0.83-0.13-2.62-0.69-4-1.26-1.37-0.57-5.2-1.83-8.5-2.81-3.3-0.97-6.67-1.86-7.5-1.96-0.83-0.11-2.85-0.72-4.5-1.35-1.65-0.64-3.23-0.93-3.5-0.65-0.27 0.28-0.95 0.08-1.5-0.43-0.55-0.51-10.9-3.39-23-6.4-12.1-3-22.56-5.28-23.25-5.06-0.69 0.23-1.25-0.04-1.25-0.59 0-0.55-0.68-0.78-1.5-0.5-0.82 0.27-1.67 0.16-1.88-0.25-0.2-0.41-2.11-1.15-4.25-1.63-2.13-0.48-4.77-1.03-5.87-1.22-1.1-0.18-2.9-0.54-4-0.79-1.1-0.25-2-0.55-2-0.66 0-0.11-0.9-0.34-2-0.5-1.1-0.16-5.15-1.18-9-2.26-3.85-1.08-7.9-1.7-9-1.37-1.41 0.42-1.78 0.24-1.25-0.61 0.44-0.72 0.24-1.15-0.5-1.05-0.69 0.08-1.93-0.12-2.75-0.46-0.82-0.34-4.43-1.37-8-2.3-3.57-0.92-7.18-1.78-8-1.9-0.82-0.12-2.62-0.69-4-1.26-1.37-0.58-3.85-1.2-5.5-1.39-1.65-0.19-3.23-0.58-3.5-0.85-0.27-0.28-6.57-2.47-14-4.87-7.43-2.4-17.1-5.76-21.5-7.46-4.4-1.7-8.23-3.13-8.5-3.17-0.27-0.05-1.85-0.84-3.5-1.76-1.65-0.92-3.35-1.35-3.78-0.96-0.43 0.4-0.76 0.16-0.75-0.53 0.02-0.69-0.31-1.18-0.72-1.09-0.41 0.09-1.65-0.23-2.75-0.7-1.1-0.46-2.56-1.44-3.25-2.15-0.69-0.72-1.7-1.09-2.25-0.81-0.55 0.27-0.99 0.16-0.97-0.25 0.01-0.41-2.35-1.87-5.25-3.24-2.91-1.37-5.51-2.73-5.78-3.04-0.27-0.3-3.87-2.62-8-5.16-4.12-2.55-10.2-6.72-13.5-9.28-3.3-2.56-8.93-7.57-12.5-11.15-3.57-3.57-7.18-7.29-8-8.27-0.82-0.98-2.05-2.65-2.73-3.7-0.67-1.05-2.92-4.83-4.98-8.41-2.06-3.58-5.22-10.44-7.02-15.25-1.8-4.81-4-12.91-4.89-18-1.2-6.88-1.47-12.58-1.04-22.25 0.31-7.15 1.31-17.05 2.21-22 0.9-4.95 2.78-12.15 4.17-16 1.39-3.85 4-9.93 5.79-13.5 1.79-3.58 5.95-10.1 9.25-14.5 3.3-4.4 8.51-10.48 11.57-13.5 3.07-3.03 5.38-5.84 5.13-6.25-0.25-0.41 0.1-1.09 0.78-1.5 0.88-0.53 1-0.31 0.42 0.75-0.46 0.82 0.6-0.08 2.34-2 1.74-1.93 2.83-2.83 2.41-2-0.42 0.82 1.12-0.41 3.41-2.75 2.3-2.34 4.74-4.3 5.43-4.37 0.69-0.06 1.59-0.06 2 0 0.41 0.07 0.52-0.33 0.25-0.88-0.27-0.55 0.36-1.49 1.42-2.1 1.51-0.87 1.82-0.81 1.43 0.25-0.28 0.74 0.22 0.45 1.09-0.65 0.88-1.1 1.58-1.55 1.56-1-0.02 0.55 0.68 0.1 1.56-1 0.87-1.1 1.3-1.33 0.94-0.5-0.36 0.82 0.07 0.6 0.94-0.5 0.88-1.1 1.59-1.66 1.58-1.25-0.01 0.41 1.44 0.01 3.23-0.89 1.79-0.9 3.58-2.14 3.98-2.75 0.41-0.61 0.75-0.77 0.75-0.36 0.01 0.41 4.18-1.09 9.27-3.33 5.09-2.25 13.75-5.38 19.25-6.97 5.5-1.59 14.5-3.81 20-4.94 5.5-1.13 16.07-2.73 23.5-3.56 7.54-0.83 22.77-1.51 34.5-1.53 15.76-0.03 24.87 0.48 36.5 2.04 8.52 1.14 20.23 3.03 26 4.2 5.77 1.17 11.29 2.18 12.25 2.23 0.96 0.06 1.75 0.45 1.75 0.86 0 0.41 0.9 0.52 2 0.25 1.1-0.28 2.11-0.08 2.25 0.44 0.14 0.51 1.6 1.15 3.25 1.42 1.65 0.26 3.11 0.51 3.25 0.56 0.14 0.04 0.59 0.22 1 0.39 0.41 0.17 2.55 1.07 4.75 2 2.2 0.93 4.23 1.47 4.5 1.2 0.27-0.27 0.95-0.09 1.5 0.41 0.55 0.5 5.61 2.74 11.25 4.99 5.64 2.25 14.41 6.16 19.5 8.7 5.09 2.54 13.08 6.91 17.75 9.71 4.67 2.81 12.33 7.77 17 11.03 4.67 3.26 12.77 9.21 18 13.22 5.23 4 12.65 10 16.5 13.32l7 6.04c3.66-3.43 6.78-7.13 9.29-10.43 2.51-3.3 11.35-14.74 19.64-25.41 8.29-10.68 14.96-19.79 14.82-20.25-0.14-0.46 0.2-0.84 0.75-0.84 0.55 0 0.83-0.79 0.62-1.75-0.21-0.96-0.89-1.64-1.5-1.5-0.62 0.14-1.52-0.54-2.01-1.5-0.49-0.96-4.4-4.68-8.7-8.25-4.3-3.58-12.79-10.19-18.87-14.69-6.07-4.51-16.44-11.55-23.04-15.65-6.6-4.09-17.51-10.2-24.25-13.55-6.74-3.36-16.19-7.75-21-9.74-4.81-2-14.37-5.56-21.25-7.9-6.87-2.35-16.89-5.44-22.25-6.87-5.36-1.43-10.2-2.38-10.75-2.1-0.55 0.27-1.11 0.02-1.25-0.58-0.14-0.59-2.16-1.15-4.49-1.25-2.34-0.09-4.25-0.51-4.25-0.92-0.01-0.41-0.91-0.53-2.01-0.25-1.1 0.27-2.23 0.05-2.5-0.5-0.27-0.55-1.51-0.9-2.75-0.78-1.24 0.12-2.81-0.11-3.5-0.5-0.69-0.4-3.39-0.87-6-1.06-2.61-0.19-5.31-0.64-6-1-0.69-0.36-2.49-0.65-4-0.64-1.51 0.01-5.67-0.42-9.25-0.97-3.58-0.54-16.62-1.44-29-2-12.37-0.56-23.4-0.96-24.5-0.88-1.1 0.07-9.65 0.49-19 0.92zm1490.5 214.59c-1.92 0.19-8 1.02-13.5 1.84-5.5 0.82-13.27 2.27-17.26 3.23-4 0.96-7.26 2.09-7.25 2.5 0 0.41-1 0.43-2.24 0.04-1.83-0.58-2.06-0.44-1.25 0.73 0.79 1.13 0.63 1.28-0.75 0.71-0.96-0.4-2.99-0.21-4.5 0.42-1.51 0.64-3.65 1.33-4.75 1.55-1.1 0.21-2.29 0.93-2.64 1.6-0.35 0.66-1.14 0.86-1.75 0.45-0.61-0.41-1.11-0.3-1.11 0.25 0 0.55-0.67 0.77-1.5 0.5-0.83-0.28-1.5-0.05-1.5 0.5 0 0.55-0.45 0.77-1 0.5-0.55-0.28-1-0.05-1 0.5 0 0.55-0.67 0.77-1.5 0.5-0.83-0.28-1.5-0.16-1.5 0.25 0 0.41-0.56 0.78-1.25 0.82-0.69 0.04-5.3 2.12-10.25 4.62-4.95 2.51-13.05 7.17-18 10.35-4.95 3.19-12.83 8.97-17.5 12.84-4.67 3.87-12.33 10.89-17 15.6-4.67 4.71-10.52 11.03-12.99 14.04-2.47 3.02-3.8 5.03-2.96 4.48 0.84-0.55 0.16 0.28-1.51 1.83-1.67 1.56-2.37 2.54-1.54 2.17 0.83-0.37 0.54 0.15-0.64 1.16-1.17 1.01-3.31 3.75-4.75 6.09-1.43 2.34-2.81 4.14-3.06 4-0.25-0.14-0.5-16-0.55-35.25-0.06-19.25-0.42-38.27-0.8-42.26l-0.7-7.26-73 0.02c-0.39 4.26-0.63 124.08-0.79 269-0.19 180.63 0.04 263.94 0.75 264.91 0.74 1.01 0.68 1.51-0.21 1.75-0.69 0.19-1.03 0.79-0.75 1.34 0.32 0.64 14.17 1 38.5 1h38c0-260.65 0.37-320.47 1.06-328.75 0.58-7.01 2.13-18.15 3.45-24.75 1.31-6.6 3.81-16.28 5.55-21.5 1.75-5.23 4.98-13.1 7.2-17.5 2.21-4.4 5.84-10.93 8.06-14.5 2.22-3.58 6.21-9.31 8.86-12.75 2.65-3.44 4.82-6.48 4.82-6.75 0-0.28 1.8-2.08 4-4 2.2-1.93 3.78-3.95 3.5-4.5-0.28-0.55 0.2-1.56 1.04-2.25 0.87-0.7 1.55-0.81 1.55-0.25 0 0.55 2.28-1.48 5.06-4.5 2.78-3.03 4.72-4.83 4.3-4-0.42 0.82 0.77 0.15 2.65-1.5 1.87-1.65 3.98-3.67 4.69-4.5 0.71-0.82 1.5-1.39 1.75-1.25 0.25 0.14 3.72-1.86 7.71-4.45 3.99-2.58 11.3-6.57 16.25-8.86 4.95-2.29 12.6-5.34 17-6.78 4.4-1.44 10.92-3.29 14.5-4.11 3.58-0.82 12.35-2.18 19.5-3.02 7.15-0.84 16.49-1.53 20.75-1.53 4.26 0 11.91 0.45 17 1 5.09 0.56 10.6 1.17 12.25 1.37 1.65 0.2 3.67 0.61 4.5 0.91 0.83 0.3 4.65 1.29 8.5 2.2 3.85 0.91 10.38 3.01 14.5 4.65 4.13 1.65 10.42 4.62 14 6.6 3.58 1.98 9.88 6.1 14 9.14 4.13 3.04 10.43 8.49 14 12.12 3.57 3.62 8.66 9.5 11.31 13.05 2.64 3.55 5.35 7.13 6.02 7.96 0.67 0.82 1.39 1.95 1.6 2.5 0.2 0.55 1.09 1.6 1.97 2.32 1.26 1.05 1.28 1.19 0.1 0.68-0.82-0.36-0.6 0.07 0.5 0.94 1.1 0.88 1.55 1.58 1 1.56-0.55-0.02-0.14 0.54 0.9 1.23 1.05 0.7 1.61 1.83 1.25 2.52-0.36 0.69 0.03 1.47 0.85 1.75 1.04 0.35 1.29 1.19 0.82 2.75-0.49 1.61-0.35 2.04 0.5 1.5q1.16-0.72 0.68 0.75c-0.28 0.82-0.05 1.5 0.5 1.5 0.55 0 0.78 0.45 0.5 1-0.28 0.55-0.05 1 0.5 1 0.56 0 0.68 0.76 0.27 1.75-0.58 1.39-0.42 1.54 0.73 0.75 1.15-0.79 1.31-0.64 0.73 0.75-0.41 0.99-0.29 1.75 0.27 1.75 0.55 0 0.92 0.79 0.82 1.75-0.1 0.96 0.61 4.22 1.58 7.25 0.96 3.02 2.02 6.17 2.34 7 0.31 0.82 0.5 2.06 0.42 2.75-0.1 0.74 0.33 0.94 1.05 0.5 0.85-0.53 1.04-0.15 0.65 1.25-0.31 1.1 0.26 6.5 1.26 12 1.01 5.5 2.11 14.27 2.45 19.5 0.34 5.22 0.78 9.72 0.97 10 0.2 0.27 0.38 75.54 0.41 167.25l0.05 166.75h76.5c-0.49-249.62-0.23-310.42 0.46-323 0.71-13.06 1.87-23.46 3.51-31.5 1.35-6.6 4.09-16.73 6.08-22.5 1.99-5.78 5.85-14.78 8.58-20 2.73-5.23 7.98-13.75 11.67-18.94 3.68-5.19 10.52-13.47 15.2-18.4 4.68-4.93 12.55-12.1 17.5-15.92 4.95-3.83 11.93-8.66 15.5-10.73 3.57-2.07 8.97-4.81 12-6.09 3.03-1.27 5.83-2.79 6.23-3.37 0.41-0.58 0.75-0.71 0.75-0.3 0.01 0.41 3.06-0.41 6.77-1.83 3.71-1.42 10.35-3.44 14.75-4.49 4.4-1.04 12.72-2.57 18.5-3.4 5.78-0.82 16.8-1.5 24.5-1.52 7.7-0.01 18.72 0.64 24.5 1.46 5.78 0.81 14.1 2.43 18.5 3.59 4.4 1.16 10.03 2.79 12.5 3.62 2.47 0.83 8.55 3.42 13.5 5.76 4.95 2.35 11.81 6.36 15.25 8.91 3.44 2.56 6.36 4.65 6.5 4.64 0.14 0 4.19 3.82 9 8.5 4.81 4.68 8.75 8.73 8.75 9.01 0 0.27 1.5 2.41 3.34 4.75 1.84 2.34 4.96 6.95 6.93 10.25 1.98 3.3 5.36 9.82 7.52 14.5 2.16 4.67 5.14 12.32 6.64 17 1.5 4.67 2.99 9.17 3.31 10 0.31 0.82 0.5 2.06 0.42 2.75-0.09 0.69 0.29 1.25 0.84 1.25 0.55 0 0.98 1.24 0.96 2.75-0.02 1.51-0.02 3.54 0 4.5 0.02 0.96 0.49 1.97 1.04 2.25 0.55 0.27 0.78 1.62 0.5 3-0.28 1.37-0.05 2.72 0.5 3 0.55 0.27 0.78 1.4 0.5 2.5-0.28 1.1-0.16 2.56 0.25 3.25 0.41 0.69 0.85 3.05 0.97 5.25 0.12 2.2 0.24 5.69 0.25 7.75 0.02 2.06 0.48 3.75 1.03 3.75 0.66 0 1 56.33 1 167 0 131.86 0.26 167.42 1.25 169 1.21 1.95 2.31 2.01 38.5 2h37.25c-0.75-277.82-1.32-347.32-1.95-353.5-0.56-5.5-1.52-13.38-2.13-17.5-0.61-4.13-1.99-11.78-3.07-17-1.08-5.23-2.63-12.2-3.46-15.5-0.82-3.3-3.36-11.85-5.64-19-2.28-7.15-7.21-19.19-10.95-26.75-3.74-7.56-7.33-13.75-7.97-13.75-0.64 0-0.88-0.34-0.53-0.75 0.35-0.41-1.71-4.08-4.58-8.15-2.87-4.07-7.92-10.36-11.22-13.98-3.3-3.63-7.59-8.17-9.53-10.11-1.94-1.93-6.11-5.76-9.25-8.51-3.15-2.75-6.29-5.19-6.97-5.43-0.69-0.23-2.37-1.44-3.75-2.7-1.37-1.25-2.84-2.07-3.25-1.82-0.41 0.25-0.75 0-0.75-0.55 0-0.55-3.49-3-7.75-5.45-4.26-2.44-12.25-6.52-17.75-9.07-5.5-2.55-15.18-6.2-21.5-8.12-6.32-1.92-14.43-4.1-18-4.84-3.57-0.75-6.84-1.17-7.25-0.94-0.41 0.23-1.31 0.01-2-0.48-0.69-0.5-5.3-1.43-10.25-2.06-4.95-0.64-17.78-1.43-28.5-1.75-12.08-0.36-24.44-0.13-32.5 0.61-7.15 0.66-18.85 2.35-26 3.75-7.15 1.41-14.12 3.03-15.5 3.61-1.37 0.58-2.95 1.1-3.5 1.16-0.55 0.06-3.37 0.78-6.26 1.6-2.9 0.81-5.26 1.7-5.25 1.98 0.01 0.27-0.77 0.58-1.74 0.67-0.96 0.1-5.57 1.81-10.25 3.81-4.68 2-13.22 6.14-19 9.19-5.78 3.06-13.65 7.61-17.5 10.12-3.85 2.51-10.5 7.3-14.78 10.64-4.27 3.34-7.99 6.63-8.25 7.32-0.26 0.69-0.92 1.25-1.47 1.25-0.55 0-6.29 5.29-12.77 11.75-6.47 6.46-14.68 15.64-18.25 20.4-3.56 4.76-6.37 8.92-6.23 9.25 0.14 0.33-0.89 1.84-2.29 3.35-1.4 1.51-2.75 3.54-3 4.5-0.25 0.96-1.02 1.6-1.71 1.41-0.69-0.19-2.33-2.56-3.65-5.25-1.32-2.7-2.67-5.14-3-5.41-0.33-0.28-0.75-1.18-0.94-2-0.19-0.83-3.64-6.45-7.66-12.5-4.02-6.05-9.02-12.8-11.1-15-2.09-2.2-3.72-4.23-3.64-4.5 0.09-0.28-3.3-3.89-7.55-8.04-4.24-4.15-10.86-10.06-14.71-13.13-3.85-3.08-10.82-8.09-15.5-11.14-4.68-3.04-13.22-7.79-19-10.55-5.78-2.77-14.1-6.2-18.5-7.63-4.4-1.43-11.37-3.5-15.5-4.6-4.12-1.1-11.1-2.62-15.5-3.39-4.4-0.77-12.39-1.88-17.75-2.46-5.36-0.58-18.19-0.99-28.5-0.9-10.31 0.09-20.33 0.32-22.25 0.52zm947.5 1.42c-5.5 0.52-12.47 1.38-15.5 1.91-3.03 0.53-7.97 1.22-11 1.53-3.03 0.31-5.95 1-6.5 1.52-0.55 0.52-1.79 0.72-2.75 0.44-0.96-0.27-1.75-0.16-1.75 0.25 0 0.41-2.14 0.79-4.75 0.85-2.7 0.05-4.86 0.59-5 1.25-0.14 0.63-0.7 0.92-1.25 0.65-0.55-0.28-5.47 0.51-10.93 1.75-5.91 1.34-9.66 2.65-9.25 3.23 0.4 0.57 0.06 0.72-0.82 0.35-0.82-0.34-5.1 0.42-9.5 1.69-4.4 1.27-11.82 3.67-16.5 5.33-4.68 1.66-14.35 5.56-21.5 8.67-7.15 3.12-17.84 8.1-23.75 11.07-5.91 2.98-10.75 5.86-10.75 6.41 0 0.55-0.45 0.77-1 0.5-0.55-0.28-1.9 0.4-3 1.5-1.1 1.1-2.24 1.66-2.53 1.25-0.29-0.41-0.51-0.19-0.5 0.5 0.02 0.69-0.31 1.2-0.72 1.13-0.41-0.06-1.31-0.06-2 0-0.72 0.07-0.93 0.64-0.5 1.35 0.53 0.87 0.24 1.02-1 0.5q-1.74-0.72-2.25 0.77c-0.28 0.82-0.84 1.29-1.25 1.03-0.41-0.26-1.56 0.08-2.55 0.75-1.08 0.73-1.58 1.92-1.25 2.97 0.3 0.96 1.02 1.75 1.6 1.75 0.58 0 0.81 0.45 0.5 1-0.3 0.55-0.1 1 0.45 1 0.55 0 0.78 0.45 0.5 1-0.28 0.55-0.05 1 0.5 1 0.55 0 0.78 0.45 0.5 1-0.28 0.55-0.05 1 0.5 1 0.55 0 0.78 0.45 0.5 1-0.28 0.55 0.18 1.67 1 2.5 0.82 0.82 1.27 1.61 1 1.75-0.28 0.14 1.35 4.3 3.61 9.25 2.26 4.95 5.9 12.82 8.09 17.5 2.19 4.67 4.62 10.07 5.41 12 0.88 2.18 2.07 3.47 3.16 3.42 0.95-0.04 11.74-5.11 23.98-11.25 12.24-6.14 22.47-11.17 22.75-11.17 0.28 0 2.86-1.22 5.75-2.7 2.89-1.49 5.47-2.74 5.75-2.79 0.28-0.05 3.2-1.12 6.5-2.38 3.3-1.25 11.18-3.85 17.5-5.77 6.32-1.91 17.35-4.79 24.5-6.39 7.15-1.59 18.85-3.66 26-4.59 9.03-1.18 20.64-1.72 38-1.77 22.05-0.06 26.42 0.21 37 2.22 6.6 1.26 15.15 3.13 19 4.17 3.85 1.03 10.82 3.28 15.5 5 4.68 1.72 9.06 3.21 9.75 3.31 0.69 0.11 1.25 0.53 1.25 0.94 0 0.41 0.56 0.75 1.25 0.74 0.69-0.01 2.48 0.56 3.99 1.25 1.51 0.69 2.75 1.6 2.75 2.01 0.01 0.41 0.46 0.52 1.01 0.25 0.55-0.28 1-0.05 1 0.5 0 0.55 0.45 0.77 1 0.5 0.55-0.28 1.11-0.16 1.25 0.25 0.14 0.41 3.56 3 7.61 5.75 4.05 2.75 10.1 7.47 13.44 10.5 3.34 3.02 8.74 8.87 12.01 13 3.26 4.12 7.78 10.65 10.03 14.5 2.25 3.85 4.33 7.22 4.63 7.5 0.29 0.27 0.62 0.95 0.74 1.5 0.11 0.55 1.78 4.6 3.71 9 1.93 4.4 4.88 12.5 6.57 18 1.68 5.5 3.7 13.82 4.49 18.5 0.78 4.67 1.88 13.9 2.43 20.5 0.56 6.6 1.14 16.16 1.3 21.24 0.16 5.09-0.05 9.25-0.46 9.25-0.41 0.01-4.01-0.93-8-2.07-3.99-1.15-7.47-1.83-7.75-1.51-0.28 0.32-0.95 0.14-1.5-0.4-0.55-0.53-2.35-1.18-4-1.43-1.65-0.26-4.57-0.93-6.5-1.48-1.93-0.56-3.84-0.81-4.25-0.56-0.41 0.25-1.31 0.14-2-0.26-0.69-0.4-1.93-0.88-2.75-1.07-0.82-0.19-2.18-0.48-3-0.64-0.82-0.16-2.18-0.55-3-0.86-0.82-0.31-10.95-2.17-22.5-4.13-11.55-1.97-26.62-4.24-33.5-5.06-6.87-0.81-19.25-1.93-27.5-2.49-8.25-0.55-23.55-0.98-34-0.97-10.45 0.02-23.5 0.48-29 1.01-5.5 0.54-11.12 0.96-12.5 0.94-1.37-0.02-8.12 0.69-15 1.57-6.87 0.89-19.25 3.13-27.5 4.98-8.25 1.85-18.6 4.47-23 5.82-4.4 1.35-11.49 3.61-15.75 5.04-4.26 1.42-12.14 4.56-17.5 6.98-5.36 2.42-12.45 5.93-15.75 7.81-3.3 1.88-8.6 5.19-11.79 7.35-3.18 2.17-5.77 4.28-5.75 4.69 0.02 0.41-0.52 0.75-1.21 0.74-0.69 0-2.82 1.45-4.75 3.22-1.93 1.78-3.84 3.13-4.25 3.01-0.41-0.12-1.87 1.13-3.25 2.78-1.37 1.65-2.84 2.99-3.25 2.99-0.41-0.01-3.11 2.35-5.99 5.25-2.88 2.89-5.23 5.48-5.22 5.76 0.01 0.27-1.68 2.3-3.76 4.51-2.08 2.2-6.51 8.05-9.84 13-3.34 4.94-7.95 12.93-10.25 17.74-2.31 4.81-5.36 12.24-6.79 16.5-1.44 4.26-3.78 13.15-5.2 19.75-2.32 10.75-2.6 14.24-2.64 33.6-0.05 15.8 0.28 22.04 1.19 23.25 0.69 0.91 1.03 2.77 0.75 4.15-0.28 1.37-0.05 2.5 0.5 2.5 0.55 0 0.83 1.24 0.61 2.75-0.21 1.51 0.63 6.35 1.88 10.75 1.24 4.4 3.46 11.15 4.93 15 1.47 3.85 5.17 11.72 8.22 17.5 3.06 5.77 7.54 13.31 9.96 16.75 2.42 3.44 4.85 6.25 5.4 6.25 0.55 0 0.98 0.56 0.95 1.25-0.02 0.69 1.55 2.49 3.5 4 1.95 1.51 3.34 3.09 3.09 3.5-0.26 0.41 1.21 2.45 3.25 4.52 2.04 2.07 4.05 3.54 4.46 3.25 0.41-0.29 2.44 1.51 4.5 3.99 2.06 2.49 4.2 4.51 4.75 4.5 0.55-0.01 1.56 0.88 2.25 1.99 0.69 1.1 1.93 2 2.75 2 0.82 0 1.49 0.34 1.48 0.75-0.01 0.41 3.48 3.08 7.75 5.93 4.27 2.86 14.3 8.32 22.27 12.15 7.97 3.83 18.55 8.39 23.5 10.14 4.95 1.75 14.4 4.44 21 5.99 6.6 1.54 15.38 3.31 19.5 3.92 4.13 0.62 12.45 1.57 18.5 2.12 6.05 0.56 19.1 1 29 0.99 9.9 0 24.07-0.66 31.5-1.44 7.43-0.79 18-2.41 23.5-3.6 5.5-1.2 14.39-3.47 19.75-5.06 5.36-1.59 14.36-4.73 20-6.97 5.64-2.25 16.1-7.08 23.24-10.75 7.15-3.67 13.79-7.46 14.75-8.42 0.97-0.96 1.97-1.64 2.23-1.5 0.26 0.14 4.43-2.55 9.25-5.97 4.83-3.42 10.81-8.05 13.28-10.29 2.47-2.24 4.72-4.07 5-4.06 0.28 0 4.32-3.7 9-8.21 4.67-4.52 8.49-8.46 8.5-8.74 0-0.29 1.28-2.09 2.85-4 1.57-1.92 2.51-2.81 2.09-1.98-0.42 0.82 0.45 0.37 1.93-1 1.49-1.38 2.91-3.29 3.17-4.25 0.25-0.96 1.25-1.99 2.21-2.28 0.96-0.29 2.08 0.05 2.48 0.75 0.41 0.71 0.75 11.18 0.75 23.28 0.01 12.1 0.35 28.86 0.77 37.25l0.75 15.26 72.5-0.01c-0.02-277.9-0.4-343.85-1.05-351.5-0.57-6.6-2.61-19.88-4.53-29.5-1.98-9.86-5.7-24.05-8.53-32.5-2.93-8.74-7.74-20.21-11.54-27.5-3.57-6.88-8.9-16.1-11.84-20.5-2.93-4.4-9.44-12.5-14.45-18-5.01-5.5-10-10.34-11.08-10.75-1.09-0.41-3.22-2.35-4.73-4.3-1.51-1.95-3.31-3.52-4-3.5-0.69 0.03-1.7-0.85-2.25-1.95-0.55-1.1-1.45-1.78-2-1.5-0.55 0.27-1.21-0.06-1.46-0.75-0.26-0.69-2.39-2.59-4.75-4.22-2.36-1.63-4.63-2.87-5.04-2.75-0.41 0.12-0.75-0.23-0.75-0.78 0-0.55-4.61-3.56-10.25-6.68-5.64-3.13-13.62-7.22-17.75-9.08-4.12-1.87-11.78-4.88-17-6.68-5.22-1.81-15.46-4.7-22.75-6.42-7.29-1.73-13.81-3.07-14.5-2.98-0.69 0.08-1.93-0.13-2.75-0.47-0.82-0.34-6.45-1.35-12.5-2.24-7.53-1.1-20.16-1.72-40-1.96-15.95-0.18-33.5 0.09-39 0.61zm-1427 275.65c0.4 147.26 0.79 268.31 0.86 269 0.11 0.98 8.43 1.25 37.89 1.25h37.75v-538h-77.22z"/>
		<path id="Path 1 copy" class="s0" d="m892 242.98c-1.33 0.84-1.41 12.69-0.75 101.73 0.41 55.44 0.74 230.73 0.75 389.54v288.75h76v-170c10.8-10.46 14.06-13.37 14.22-13.22 0.15 0.16 5.68-5.37 12.28-12.29 6.6-6.92 12.45-12.54 13-12.5 0.55 0.05 5.66-4.77 11.35-10.7 5.69-5.94 10-10.12 9.58-9.29-0.41 0.83 4.6-3.63 11.16-9.9 6.55-6.27 14.83-14.39 18.41-18.04 3.58-3.65 7.74-7.41 9.25-8.35l2.75-1.71c8.29 12.01 11.66 16.62 12.84 18 1.18 1.37 4.73 5.89 7.9 10.04 3.17 4.15 6.33 8.2 7.03 9 0.7 0.8 5.13 6.63 9.85 12.96 4.73 6.33 10.12 13.64 11.99 16.25 1.86 2.61 3.84 4.75 4.39 4.75 0.55 0 1 0.45 1 1 0 0.55 6.15 8.76 13.66 18.25 7.51 9.49 14.15 17.7 14.75 18.25 0.6 0.55 2.44 2.97 4.09 5.37 1.65 2.4 3.79 4.76 4.75 5.25 0.96 0.48 1.64 1.28 1.5 1.78-0.14 0.49 5.49 8.37 12.5 17.5 7.01 9.13 13.2 16.6 13.75 16.6 0.55 0 1.02 0.56 1.03 1.25 0.02 0.69 2.41 4.17 5.32 7.75 2.9 3.58 8.36 10.55 12.12 15.5 3.77 4.95 7.68 9.9 8.69 11 1.02 1.1 5.11 6.18 9.1 11.29 3.98 5.11 7.58 9.27 7.99 9.25 0.41-0.02 0.75 0.41 0.75 0.96 0 0.55 3.9 6.06 8.67 12.25 4.77 6.19 9.83 12.3 11.25 13.57 1.42 1.28 1.91 2.03 1.08 1.68-0.83-0.35-0.15 0.56 1.5 2.04 1.65 1.47 2.44 2.41 1.75 2.07-0.69-0.34 2.72 4.45 7.58 10.64l8.84 11.25c75.61 0.41 91.33 0.16 91.33-0.5 0-0.55-0.84-1.56-1.87-2.25-1.02-0.69-1.81-1.54-1.75-1.89 0.07-0.36-5.5-7.97-12.38-16.93-6.87-8.95-28.18-36.11-47.35-60.35-19.16-24.24-39.55-50.16-45.31-57.58-5.76-7.42-13.93-17.98-18.15-23.46-4.23-5.48-8.7-11-9.94-12.25-1.24-1.26-2.25-2.52-2.25-2.79 0-0.27-3.71-5.15-8.25-10.82-4.54-5.68-10.32-12.99-12.86-16.25-2.53-3.26-14.55-18.76-26.71-34.43-12.16-15.67-23.27-29.85-24.69-31.5-1.41-1.65-2.55-3.11-2.53-3.25 0.02-0.14-6.71-8.91-14.96-19.5-8.25-10.59-14.89-20-14.75-20.92 0.14-0.92 8.61-9.47 18.84-19 10.22-9.53 29.12-27.3 42-39.48 12.87-12.19 30.38-29.06 38.91-37.49 8.53-8.44 17.08-16.62 19-18.18 1.92-1.57 13.85-12.85 26.5-25.08 12.65-12.23 29.74-28.5 37.99-36.17 8.24-7.66 20.39-19.05 27-25.31 6.6-6.25 13.47-13 15.25-15 1.77-1.99 3.22-3.17 3.21-2.62-0.01 0.55 0.89 0.1 2-1 1.11-1.1 1.8-2.34 1.53-2.75-0.26-0.41-22.08-0.75-48.48-0.75-31.67 0-47.83 0.34-47.5 1 0.28 0.55-0.17 1.23-1 1.5-0.95 0.32-1.28 0.04-0.91-0.75 0.33-0.69-3.27 2.69-8 7.5-4.72 4.81-8.59 8.41-8.59 8-0.01-0.41-3.49 2.62-7.73 6.75-4.25 4.12-12.43 12.23-18.17 18-5.74 5.77-10.11 9.83-9.7 9 0.4-0.83-3.82 3.23-9.39 9-5.56 5.77-10.56 10.5-11.11 10.5-0.54 0-7.14 6.08-14.64 13.5-7.51 7.42-17.62 17.55-22.47 22.5-4.84 4.95-8.8 8.55-8.79 8 0-0.55-4.56 3.73-10.15 9.5-5.58 5.77-9.81 9.83-9.38 9 0.42-0.83-4.08 3.45-10 9.5-5.92 6.05-10.42 10.33-10.01 9.5 0.41-0.83-4.75 4.12-11.47 11-6.72 6.87-11.64 11.6-10.94 10.5 0.7-1.1-4.76 4.06-12.14 11.47-7.37 7.4-13.75 13.37-14.16 13.25-0.41-0.12-5.03 4.51-10.25 10.28-5.22 5.77-9.95 10.27-10.5 10-0.55-0.27-5.16 3.98-10.25 9.46-5.09 5.47-9.57 9.86-9.95 9.75-0.39-0.12-8.18 7.21-17.33 16.29-9.15 9.08-17.95 18.19-19.55 20.25-1.61 2.06-3.37 3.52-3.92 3.25-0.66-0.33-1-88.17-1-260.5v-260c-58.95 0.02-75.13 0.43-76 0.98zm-432.5 18.11c-9.35 0.44-20.37 1.27-24.5 1.86-4.12 0.59-8.18 1.11-9 1.15-0.82 0.05-6.9 0.96-13.5 2.02-6.6 1.07-12.68 2.22-13.5 2.57-0.82 0.34-1.84 0.56-2.25 0.47-0.41-0.09-5.36 1-11 2.42-5.64 1.41-14.52 4.08-19.75 5.91-5.23 1.84-13.32 4.89-18 6.79-4.68 1.9-12.32 5.38-17 7.73-4.68 2.35-12.1 6.5-16.5 9.22-4.4 2.73-8.11 5.36-8.25 5.86-0.14 0.5-0.7 0.91-1.25 0.91-0.55 0-2.57 1.57-4.5 3.5-1.93 1.92-3.95 3.27-4.5 3-0.55-0.27-1.56 0.29-2.25 1.25-1.14 1.6-1.1 1.62 0.54 0.25 0.99-0.83 1.79-1.27 1.78-1-0.01 0.27-1.94 2.06-4.29 3.96-2.35 1.9-3.64 2.58-2.85 1.5 0.79-1.08-0.56 0.1-3 2.62-2.44 2.51-3.76 3.64-2.95 2.5 0.81-1.15-0.21-0.51-2.27 1.42-2.06 1.92-3.76 3.73-3.77 4-0.02 0.27 0.78-0.18 1.77-1 1.64-1.37 1.68-1.35 0.54 0.25-0.69 0.96-1.62 1.64-2.08 1.5-0.45-0.14-3.52 2.45-6.82 5.75-3.3 3.3-8.69 9.6-11.97 14-3.29 4.4-7.81 10.92-10.04 14.5-2.23 3.57-5.86 10.1-8.05 14.5-2.19 4.4-5.16 11.15-6.6 15-1.44 3.85-3.75 11.05-5.15 16-1.39 4.95-2.31 9.23-2.04 9.5 0.26 0.27 0.04 0.95-0.51 1.5-0.55 0.55-1.11 3.77-1.24 7.16-0.15 3.56-0.64 5.88-1.18 5.5-0.57-0.4-0.65 1.68-0.21 5.34 0.53 4.35 0.44 5.59-0.34 4.5-0.81-1.15-1.07-0.32-1.1 3.5-0.02 2.75-0.28 10.17-0.56 16.5-0.29 6.32 0 16.45 0.64 22.5 0.64 6.05 2.3 16.4 3.69 23 1.38 6.6 3.87 15.83 5.53 20.5 1.66 4.67 4.98 12.44 7.4 17.25 2.41 4.81 6.03 11.34 8.05 14.5 2.01 3.16 5.7 8.23 8.19 11.25 2.48 3.02 7.7 8.77 11.58 12.76 3.88 3.99 7.4 7.25 7.81 7.25 0.41-0.01 2.44 1.68 4.5 3.74 2.06 2.06 6.66 6 10.23 8.75 3.56 2.75 6.07 4.33 5.58 3.5-0.49-0.83 0.2-0.36 1.53 1.03 1.32 1.4 6.46 5.05 11.41 8.11 4.95 3.07 13.27 7.73 18.5 10.36 5.23 2.63 12.99 6.29 17.25 8.14 4.26 1.85 7.99 3.02 8.28 2.61 0.29-0.41 0.51-0.19 0.5 0.5-0.02 0.69 0.65 1.02 1.47 0.75 0.82-0.27 1.5-0.05 1.5 0.5 0 0.55 2.36 1.85 5.25 2.9 2.89 1.04 6.15 2.05 7.25 2.25 1.1 0.19 2.23 0.63 2.5 0.97 0.27 0.34 4.55 2.01 9.5 3.71 4.95 1.71 17.1 5.41 27 8.23 9.9 2.82 24.98 6.92 33.5 9.1 8.52 2.19 22.48 5.72 31 7.85 8.52 2.14 24.95 6.22 36.5 9.08 11.55 2.87 21.79 5.25 22.75 5.31 0.96 0.05 1.75 0.44 1.75 0.85 0 0.41 0.56 0.76 1.25 0.76 0.69 0.01 8.45 2.32 17.25 5.13 8.8 2.81 22.08 7.57 29.5 10.57 7.42 3.01 19.13 8.37 26 11.91 6.88 3.54 16.55 9.33 21.5 12.88 4.95 3.54 13.04 10.39 17.99 15.22 4.94 4.83 8.3 8.33 7.46 7.78-0.84-0.55-0.16 0.28 1.51 1.83 1.67 1.56 2.48 2.58 1.79 2.25-0.86-0.4-0.79 0.19 0.25 1.92 0.83 1.37 1.73 2.5 2 2.5 0.27 0 0.24-0.56-0.07-1.25-0.32-0.69 0.12-0.35 0.97 0.75 0.85 1.1 1.33 2.34 1.07 2.75-0.26 0.41 0.06 0.75 0.7 0.75 0.64 0 0.86 0.34 0.49 0.75-0.36 0.41 0.4 2.55 1.7 4.75 1.3 2.2 3.52 6.92 4.95 10.5 1.42 3.58 3.26 9.2 4.08 12.5 0.83 3.3 1.77 7.58 2.1 9.5 0.32 1.92 0.85 9.12 1.18 16 0.32 6.9 0.09 16.98-0.52 22.5-0.6 5.5-2.01 13.26-3.13 17.25-1.11 3.99-1.68 7.26-1.27 7.27 0.41 0 0.3 0.34-0.26 0.75-0.55 0.4-2.08 3.43-3.38 6.73-1.3 3.3-4.45 9.55-6.99 13.89-2.54 4.34-4.96 8.05-5.37 8.25-0.41 0.2-0.52 0.81-0.25 1.36 0.27 0.55 0.16 0.99-0.25 0.98-0.41-0.01-3.23 2.99-6.25 6.68-3.02 3.68-6.96 8.42-8.75 10.52-1.79 2.1-3.7 3.59-4.25 3.32-0.55-0.27-2.12 1.08-3.5 3-1.37 1.92-2.95 3.27-3.5 3-0.55-0.27-1-0.05-1 0.5 0 0.55-0.45 1-1 1-0.55 0-4.04 1.96-7.75 4.36-3.71 2.4-10.58 6.34-15.25 8.76-4.67 2.42-10.98 5.4-14 6.63-3.02 1.22-8.87 3.37-13 4.77-4.12 1.41-11.55 3.48-16.5 4.6-4.95 1.12-11.48 2.45-14.5 2.97-3.02 0.51-11.8 1.61-19.5 2.43-7.7 0.82-22.77 1.49-33.5 1.49-10.73 0-24.23-0.46-30-1.03-5.77-0.57-15.23-1.73-21-2.56-5.77-0.84-14.55-2.42-19.5-3.51-4.95-1.09-13.95-3.38-20-5.08-6.05-1.7-13.81-4.16-17.25-5.46-3.44-1.31-6.23-2.03-6.21-1.62 0.03 0.41-0.67 0.08-1.54-0.75-0.87-0.83-1.58-1.05-1.56-0.5 0.02 0.63-0.24 0.62-0.71-0.03-0.4-0.57-3.88-2.34-7.73-3.94-3.85-1.59-12.62-5.54-19.5-8.77-6.87-3.23-17-8.65-22.5-12.04-5.5-3.39-13.6-8.59-18-11.57-4.4-2.97-10.81-7.59-14.25-10.28-3.44-2.68-6.36-4.85-6.5-4.83-0.14 0.02-2.93-2.34-6.21-5.25-3.28-2.91-12.73-11.66-21-19.43-13.22-12.44-15.28-14.02-17.04-13.09-1.67 0.88-1.83 0.81-1-0.41 0.55-0.81-0.12-0.12-1.5 1.53-1.37 1.64-5.65 6.63-9.5 11.09-3.85 4.45-12.4 14.55-19 22.44-6.6 7.89-12.04 14.63-12.09 14.97-0.04 0.33-0.38 1.4-0.75 2.36-0.36 0.96-1.11 1.52-1.66 1.25-0.55-0.28-0.99-0.16-0.98 0.25 0.01 0.41 2.15 2.96 4.75 5.65 2.6 2.7 6.98 7.16 9.73 9.9 2.75 2.75 9.95 9.35 16 14.68 6.05 5.33 14.82 12.6 19.5 16.16 4.68 3.56 11.88 8.77 16 11.58 4.13 2.8 11.55 7.54 16.5 10.52 4.95 2.99 14.63 8.39 21.5 12.01 6.88 3.63 17.45 8.7 23.5 11.28 6.05 2.58 15.95 6.48 22 8.67 6.05 2.18 14.38 5.09 18.5 6.45 4.13 1.37 13.35 4.02 20.5 5.89 7.15 1.86 19.75 4.56 28 5.99 8.25 1.43 20.18 3.22 26.5 3.99 6.32 0.76 19.15 1.92 28.5 2.58 10.2 0.71 24.8 0.93 36.5 0.56 10.73-0.34 24.23-1.09 30-1.66 5.77-0.58 17.48-2.19 26-3.59 8.52-1.4 20.67-3.84 27-5.43 6.33-1.58 16.23-4.52 22-6.52 5.77-2.01 14.77-5.46 20-7.68 5.23-2.21 13.55-6.06 18.5-8.54 4.95-2.49 12.6-6.75 17-9.48 4.4-2.72 11.83-7.81 16.5-11.29 4.67-3.49 9.06-7.27 9.75-8.41 0.69-1.13 1.81-2.06 2.5-2.05 0.69 0 4.73-3.49 8.99-7.75 4.26-4.27 7.75-8.32 7.75-9.01 0.01-0.69 0.8-1.64 1.76-2.12 0.96-0.47 4.21-3.96 7.21-7.75 3-3.78 7.69-10.48 10.42-14.88 2.73-4.4 7.11-12.5 9.73-18 2.62-5.5 6.33-15.17 8.25-21.5 1.91-6.33 4.4-16 5.53-21.5 1.13-5.5 2.51-15.17 3.07-21.5 0.56-6.33 1.03-16.23 1.04-22 0.01-5.78-0.47-15.23-1.05-21-0.59-5.78-1.94-15-3-20.5-1.06-5.5-2.65-12.48-3.53-15.5-0.88-3.03-2.97-9.33-4.64-14-1.67-4.67-5.23-12.89-7.91-18.25-2.68-5.36-5.32-9.75-5.87-9.75-0.55 0-0.89-0.34-0.76-0.75 0.14-0.41-0.76-2.44-2-4.5-1.23-2.06-2.69-3.75-3.24-3.75-0.55 0-1-0.67-1-1.5 0-0.83-1.15-2.29-2.56-3.25-1.41-0.96-2.73-2.42-2.95-3.25-0.21-0.83-5.25-6.47-11.19-12.55-5.94-6.08-15.07-14.23-20.3-18.13-5.23-3.89-13.55-9.54-18.5-12.55-4.95-3.02-11.02-6.52-13.5-7.78-2.48-1.26-4.73-2.18-5-2.05-0.27 0.13-0.73-0.15-1-0.6-0.27-0.46-2.75-1.91-5.5-3.22-2.75-1.3-8.49-3.89-12.75-5.75-4.26-1.85-7.73-3.03-7.71-2.62 0.03 0.41-0.53 0.19-1.25-0.49-0.71-0.69-1.64-0.91-2.07-0.5-0.43 0.41-0.76 0.18-0.75-0.51 0.02-0.69-1.32-1.48-2.97-1.75-1.65-0.28-3.34-0.46-3.75-0.41-0.41 0.04-0.98-0.33-1.25-0.84-0.27-0.5-5.45-2.63-11.5-4.72-6.05-2.08-11.67-3.9-12.5-4.02-0.83-0.13-2.62-0.69-4-1.26-1.37-0.57-5.2-1.83-8.5-2.81-3.3-0.97-6.67-1.86-7.5-1.96-0.83-0.11-2.85-0.72-4.5-1.35-1.65-0.64-3.23-0.93-3.5-0.65-0.27 0.28-0.95 0.08-1.5-0.43-0.55-0.51-10.9-3.39-23-6.4-12.1-3-22.56-5.28-23.25-5.06-0.69 0.23-1.25-0.04-1.25-0.59 0-0.55-0.68-0.78-1.5-0.5-0.82 0.27-1.67 0.16-1.88-0.25-0.2-0.41-2.11-1.15-4.25-1.63-2.13-0.48-4.77-1.03-5.87-1.22-1.1-0.18-2.9-0.54-4-0.79-1.1-0.25-2-0.55-2-0.66 0-0.11-0.9-0.34-2-0.5-1.1-0.16-5.15-1.18-9-2.26-3.85-1.08-7.9-1.7-9-1.37-1.41 0.42-1.78 0.24-1.25-0.61 0.44-0.72 0.24-1.15-0.5-1.05-0.69 0.08-1.93-0.12-2.75-0.46-0.82-0.34-4.43-1.37-8-2.3-3.57-0.92-7.18-1.78-8-1.9-0.82-0.12-2.62-0.69-4-1.26-1.37-0.58-3.85-1.2-5.5-1.39-1.65-0.19-3.23-0.58-3.5-0.85-0.27-0.28-6.57-2.47-14-4.87-7.43-2.4-17.1-5.76-21.5-7.46-4.4-1.7-8.23-3.13-8.5-3.17-0.27-0.05-1.85-0.84-3.5-1.76-1.65-0.92-3.35-1.35-3.78-0.96-0.43 0.4-0.76 0.16-0.75-0.53 0.02-0.69-0.31-1.18-0.72-1.09-0.41 0.09-1.65-0.23-2.75-0.7-1.1-0.46-2.56-1.44-3.25-2.15-0.69-0.72-1.7-1.09-2.25-0.81-0.55 0.27-0.99 0.16-0.97-0.25 0.01-0.41-2.35-1.87-5.25-3.24-2.91-1.37-5.51-2.73-5.78-3.04-0.27-0.3-3.87-2.62-8-5.16-4.12-2.55-10.2-6.72-13.5-9.28-3.3-2.56-8.93-7.57-12.5-11.15-3.57-3.57-7.18-7.29-8-8.27-0.82-0.98-2.05-2.65-2.73-3.7-0.67-1.05-2.92-4.83-4.98-8.41-2.06-3.58-5.22-10.44-7.02-15.25-1.8-4.81-4-12.91-4.89-18-1.2-6.88-1.47-12.58-1.04-22.25 0.31-7.15 1.31-17.05 2.21-22 0.9-4.95 2.78-12.15 4.17-16 1.39-3.85 4-9.93 5.79-13.5 1.79-3.58 5.95-10.1 9.25-14.5 3.3-4.4 8.51-10.48 11.57-13.5 3.07-3.03 5.38-5.84 5.13-6.25-0.25-0.41 0.1-1.09 0.78-1.5 0.88-0.53 1-0.31 0.42 0.75-0.46 0.82 0.6-0.08 2.34-2 1.74-1.93 2.83-2.83 2.41-2-0.42 0.82 1.12-0.41 3.41-2.75 2.3-2.34 4.74-4.3 5.43-4.37 0.69-0.06 1.59-0.06 2 0 0.41 0.07 0.52-0.33 0.25-0.88-0.27-0.55 0.36-1.49 1.42-2.1 1.51-0.87 1.82-0.81 1.43 0.25-0.28 0.74 0.22 0.45 1.09-0.65 0.88-1.1 1.58-1.55 1.56-1-0.02 0.55 0.68 0.1 1.56-1 0.87-1.1 1.3-1.33 0.94-0.5-0.36 0.82 0.07 0.6 0.94-0.5 0.88-1.1 1.59-1.66 1.58-1.25-0.01 0.41 1.44 0.01 3.23-0.89 1.79-0.9 3.58-2.14 3.98-2.75 0.41-0.61 0.75-0.77 0.75-0.36 0.01 0.41 4.18-1.09 9.27-3.33 5.09-2.25 13.75-5.38 19.25-6.97 5.5-1.59 14.5-3.81 20-4.94 5.5-1.13 16.07-2.73 23.5-3.56 7.54-0.83 22.77-1.51 34.5-1.53 15.76-0.03 24.87 0.48 36.5 2.04 8.52 1.14 20.23 3.03 26 4.2 5.77 1.17 11.29 2.18 12.25 2.23 0.96 0.06 1.75 0.45 1.75 0.86 0 0.41 0.9 0.52 2 0.25 1.1-0.28 2.11-0.08 2.25 0.44 0.14 0.51 1.6 1.15 3.25 1.42 1.65 0.26 3.11 0.51 3.25 0.56 0.14 0.04 0.59 0.22 1 0.39 0.41 0.17 2.55 1.07 4.75 2 2.2 0.93 4.23 1.47 4.5 1.2 0.27-0.27 0.95-0.09 1.5 0.41 0.55 0.5 5.61 2.74 11.25 4.99 5.64 2.25 14.41 6.16 19.5 8.7 5.09 2.54 13.08 6.91 17.75 9.71 4.67 2.81 12.33 7.77 17 11.03 4.67 3.26 12.77 9.21 18 13.22 5.23 4 12.65 10 16.5 13.32l7 6.04c3.66-3.43 6.78-7.13 9.29-10.43 2.51-3.3 11.35-14.74 19.64-25.41 8.29-10.68 14.96-19.79 14.82-20.25-0.14-0.46 0.2-0.84 0.75-0.84 0.55 0 0.83-0.79 0.62-1.75-0.21-0.96-0.89-1.64-1.5-1.5-0.62 0.14-1.52-0.54-2.01-1.5-0.49-0.96-4.4-4.68-8.7-8.25-4.3-3.58-12.79-10.19-18.87-14.69-6.07-4.51-16.44-11.55-23.04-15.65-6.6-4.09-17.51-10.2-24.25-13.55-6.74-3.36-16.19-7.75-21-9.74-4.81-2-14.37-5.56-21.25-7.9-6.87-2.35-16.89-5.44-22.25-6.87-5.36-1.43-10.2-2.38-10.75-2.1-0.55 0.27-1.11 0.02-1.25-0.58-0.14-0.59-2.16-1.15-4.49-1.25-2.34-0.09-4.25-0.51-4.25-0.92-0.01-0.41-0.91-0.53-2.01-0.25-1.1 0.27-2.23 0.05-2.5-0.5-0.27-0.55-1.51-0.9-2.75-0.78-1.24 0.12-2.81-0.11-3.5-0.5-0.69-0.4-3.39-0.87-6-1.06-2.61-0.19-5.31-0.64-6-1-0.69-0.36-2.49-0.65-4-0.64-1.51 0.01-5.67-0.42-9.25-0.97-3.58-0.54-16.62-1.44-29-2-12.37-0.56-23.4-0.96-24.5-0.88-1.1 0.07-9.65 0.49-19 0.92zm1490.5 214.59c-1.92 0.19-8 1.02-13.5 1.84-5.5 0.82-13.27 2.27-17.26 3.23-4 0.96-7.26 2.09-7.25 2.5 0 0.41-1 0.43-2.24 0.04-1.83-0.58-2.06-0.44-1.25 0.73 0.79 1.13 0.63 1.28-0.75 0.71-0.96-0.4-2.99-0.21-4.5 0.42-1.51 0.64-3.65 1.33-4.75 1.55-1.1 0.21-2.29 0.93-2.64 1.6-0.35 0.66-1.14 0.86-1.75 0.45-0.61-0.41-1.11-0.3-1.11 0.25 0 0.55-0.67 0.77-1.5 0.5-0.83-0.28-1.5-0.05-1.5 0.5 0 0.55-0.45 0.77-1 0.5-0.55-0.28-1-0.05-1 0.5 0 0.55-0.67 0.77-1.5 0.5-0.83-0.28-1.5-0.16-1.5 0.25 0 0.41-0.56 0.78-1.25 0.82-0.69 0.04-5.3 2.12-10.25 4.62-4.95 2.51-13.05 7.17-18 10.35-4.95 3.19-12.83 8.97-17.5 12.84-4.67 3.87-12.33 10.89-17 15.6-4.67 4.71-10.52 11.03-12.99 14.04-2.47 3.02-3.8 5.03-2.96 4.48 0.84-0.55 0.16 0.28-1.51 1.83-1.67 1.56-2.37 2.54-1.54 2.17 0.83-0.37 0.54 0.15-0.64 1.16-1.17 1.01-3.31 3.75-4.75 6.09-1.43 2.34-2.81 4.14-3.06 4-0.25-0.14-0.5-16-0.55-35.25-0.06-19.25-0.42-38.27-0.8-42.26l-0.7-7.26-73 0.02c-0.39 4.26-0.63 124.08-0.79 269-0.19 180.63 0.04 263.94 0.75 264.91 0.74 1.01 0.68 1.51-0.21 1.75-0.69 0.19-1.03 0.79-0.75 1.34 0.32 0.64 14.17 1 38.5 1h38c0-260.65 0.37-320.47 1.06-328.75 0.58-7.01 2.13-18.15 3.45-24.75 1.31-6.6 3.81-16.28 5.55-21.5 1.75-5.23 4.98-13.1 7.2-17.5 2.21-4.4 5.84-10.93 8.06-14.5 2.22-3.58 6.21-9.31 8.86-12.75 2.65-3.44 4.82-6.48 4.82-6.75 0-0.28 1.8-2.08 4-4 2.2-1.93 3.78-3.95 3.5-4.5-0.28-0.55 0.2-1.56 1.04-2.25 0.87-0.7 1.55-0.81 1.55-0.25 0 0.55 2.28-1.48 5.06-4.5 2.78-3.03 4.72-4.83 4.3-4-0.42 0.82 0.77 0.15 2.65-1.5 1.87-1.65 3.98-3.67 4.69-4.5 0.71-0.82 1.5-1.39 1.75-1.25 0.25 0.14 3.72-1.86 7.71-4.45 3.99-2.58 11.3-6.57 16.25-8.86 4.95-2.29 12.6-5.34 17-6.78 4.4-1.44 10.92-3.29 14.5-4.11 3.58-0.82 12.35-2.18 19.5-3.02 7.15-0.84 16.49-1.53 20.75-1.53 4.26 0 11.91 0.45 17 1 5.09 0.56 10.6 1.17 12.25 1.37 1.65 0.2 3.67 0.61 4.5 0.91 0.83 0.3 4.65 1.29 8.5 2.2 3.85 0.91 10.38 3.01 14.5 4.65 4.13 1.65 10.42 4.62 14 6.6 3.58 1.98 9.88 6.1 14 9.14 4.13 3.04 10.43 8.49 14 12.12 3.57 3.62 8.66 9.5 11.31 13.05 2.64 3.55 5.35 7.13 6.02 7.96 0.67 0.82 1.39 1.95 1.6 2.5 0.2 0.55 1.09 1.6 1.97 2.32 1.26 1.05 1.28 1.19 0.1 0.68-0.82-0.36-0.6 0.07 0.5 0.94 1.1 0.88 1.55 1.58 1 1.56-0.55-0.02-0.14 0.54 0.9 1.23 1.05 0.7 1.61 1.83 1.25 2.52-0.36 0.69 0.03 1.47 0.85 1.75 1.04 0.35 1.29 1.19 0.82 2.75-0.49 1.61-0.35 2.04 0.5 1.5q1.16-0.72 0.68 0.75c-0.28 0.82-0.05 1.5 0.5 1.5 0.55 0 0.78 0.45 0.5 1-0.28 0.55-0.05 1 0.5 1 0.56 0 0.68 0.76 0.27 1.75-0.58 1.39-0.42 1.54 0.73 0.75 1.15-0.79 1.31-0.64 0.73 0.75-0.41 0.99-0.29 1.75 0.27 1.75 0.55 0 0.92 0.79 0.82 1.75-0.1 0.96 0.61 4.22 1.58 7.25 0.96 3.02 2.02 6.17 2.34 7 0.31 0.82 0.5 2.06 0.42 2.75-0.1 0.74 0.33 0.94 1.05 0.5 0.85-0.53 1.04-0.15 0.65 1.25-0.31 1.1 0.26 6.5 1.26 12 1.01 5.5 2.11 14.27 2.45 19.5 0.34 5.22 0.78 9.72 0.97 10 0.2 0.27 0.38 75.54 0.41 167.25l0.05 166.75h76.5c-0.49-249.62-0.23-310.42 0.46-323 0.71-13.06 1.87-23.46 3.51-31.5 1.35-6.6 4.09-16.73 6.08-22.5 1.99-5.78 5.85-14.78 8.58-20 2.73-5.23 7.98-13.75 11.67-18.94 3.68-5.19 10.52-13.47 15.2-18.4 4.68-4.93 12.55-12.1 17.5-15.92 4.95-3.83 11.93-8.66 15.5-10.73 3.57-2.07 8.97-4.81 12-6.09 3.03-1.27 5.83-2.79 6.23-3.37 0.41-0.58 0.75-0.71 0.75-0.3 0.01 0.41 3.06-0.41 6.77-1.83 3.71-1.42 10.35-3.44 14.75-4.49 4.4-1.04 12.72-2.57 18.5-3.4 5.78-0.82 16.8-1.5 24.5-1.52 7.7-0.01 18.72 0.64 24.5 1.46 5.78 0.81 14.1 2.43 18.5 3.59 4.4 1.16 10.03 2.79 12.5 3.62 2.47 0.83 8.55 3.42 13.5 5.76 4.95 2.35 11.81 6.36 15.25 8.91 3.44 2.56 6.36 4.65 6.5 4.64 0.14 0 4.19 3.82 9 8.5 4.81 4.68 8.75 8.73 8.75 9.01 0 0.27 1.5 2.41 3.34 4.75 1.84 2.34 4.96 6.95 6.93 10.25 1.98 3.3 5.36 9.82 7.52 14.5 2.16 4.67 5.14 12.32 6.64 17 1.5 4.67 2.99 9.17 3.31 10 0.31 0.82 0.5 2.06 0.42 2.75-0.09 0.69 0.29 1.25 0.84 1.25 0.55 0 0.98 1.24 0.96 2.75-0.02 1.51-0.02 3.54 0 4.5 0.02 0.96 0.49 1.97 1.04 2.25 0.55 0.27 0.78 1.62 0.5 3-0.28 1.37-0.05 2.72 0.5 3 0.55 0.27 0.78 1.4 0.5 2.5-0.28 1.1-0.16 2.56 0.25 3.25 0.41 0.69 0.85 3.05 0.97 5.25 0.12 2.2 0.24 5.69 0.25 7.75 0.02 2.06 0.48 3.75 1.03 3.75 0.66 0 1 56.33 1 167 0 131.86 0.26 167.42 1.25 169 1.21 1.95 2.31 2.01 38.5 2h37.25c-0.75-277.82-1.32-347.32-1.95-353.5-0.56-5.5-1.52-13.38-2.13-17.5-0.61-4.13-1.99-11.78-3.07-17-1.08-5.23-2.63-12.2-3.46-15.5-0.82-3.3-3.36-11.85-5.64-19-2.28-7.15-7.21-19.19-10.95-26.75-3.74-7.56-7.33-13.75-7.97-13.75-0.64 0-0.88-0.34-0.53-0.75 0.35-0.41-1.71-4.08-4.58-8.15-2.87-4.07-7.92-10.36-11.22-13.98-3.3-3.63-7.59-8.17-9.53-10.11-1.94-1.93-6.11-5.76-9.25-8.51-3.15-2.75-6.29-5.19-6.97-5.43-0.69-0.23-2.37-1.44-3.75-2.7-1.37-1.25-2.84-2.07-3.25-1.82-0.41 0.25-0.75 0-0.75-0.55 0-0.55-3.49-3-7.75-5.45-4.26-2.44-12.25-6.52-17.75-9.07-5.5-2.55-15.18-6.2-21.5-8.12-6.32-1.92-14.43-4.1-18-4.84-3.57-0.75-6.84-1.17-7.25-0.94-0.41 0.23-1.31 0.01-2-0.48-0.69-0.5-5.3-1.43-10.25-2.06-4.95-0.64-17.78-1.43-28.5-1.75-12.08-0.36-24.44-0.13-32.5 0.61-7.15 0.66-18.85 2.35-26 3.75-7.15 1.41-14.12 3.03-15.5 3.61-1.37 0.58-2.95 1.1-3.5 1.16-0.55 0.06-3.37 0.78-6.26 1.6-2.9 0.81-5.26 1.7-5.25 1.98 0.01 0.27-0.77 0.58-1.74 0.67-0.96 0.1-5.57 1.81-10.25 3.81-4.68 2-13.22 6.14-19 9.19-5.78 3.06-13.65 7.61-17.5 10.12-3.85 2.51-10.5 7.3-14.78 10.64-4.27 3.34-7.99 6.63-8.25 7.32-0.26 0.69-0.92 1.25-1.47 1.25-0.55 0-6.29 5.29-12.77 11.75-6.47 6.46-14.68 15.64-18.25 20.4-3.56 4.76-6.37 8.92-6.23 9.25 0.14 0.33-0.89 1.84-2.29 3.35-1.4 1.51-2.75 3.54-3 4.5-0.25 0.96-1.02 1.6-1.71 1.41-0.69-0.19-2.33-2.56-3.65-5.25-1.32-2.7-2.67-5.14-3-5.41-0.33-0.28-0.75-1.18-0.94-2-0.19-0.83-3.64-6.45-7.66-12.5-4.02-6.05-9.02-12.8-11.1-15-2.09-2.2-3.72-4.23-3.64-4.5 0.09-0.28-3.3-3.89-7.55-8.04-4.24-4.15-10.86-10.06-14.71-13.13-3.85-3.08-10.82-8.09-15.5-11.14-4.68-3.04-13.22-7.79-19-10.55-5.78-2.77-14.1-6.2-18.5-7.63-4.4-1.43-11.37-3.5-15.5-4.6-4.12-1.1-11.1-2.62-15.5-3.39-4.4-0.77-12.39-1.88-17.75-2.46-5.36-0.58-18.19-0.99-28.5-0.9-10.31 0.09-20.33 0.32-22.25 0.52zm947.5 1.42c-5.5 0.52-12.47 1.38-15.5 1.91-3.03 0.53-7.97 1.22-11 1.53-3.03 0.31-5.95 1-6.5 1.52-0.55 0.52-1.79 0.72-2.75 0.44-0.96-0.27-1.75-0.16-1.75 0.25 0 0.41-2.14 0.79-4.75 0.85-2.7 0.05-4.86 0.59-5 1.25-0.14 0.63-0.7 0.92-1.25 0.65-0.55-0.28-5.47 0.51-10.93 1.75-5.91 1.34-9.66 2.65-9.25 3.23 0.4 0.57 0.06 0.72-0.82 0.35-0.82-0.34-5.1 0.42-9.5 1.69-4.4 1.27-11.82 3.67-16.5 5.33-4.68 1.66-14.35 5.56-21.5 8.67-7.15 3.12-17.84 8.1-23.75 11.07-5.91 2.98-10.75 5.86-10.75 6.41 0 0.55-0.45 0.77-1 0.5-0.55-0.28-1.9 0.4-3 1.5-1.1 1.1-2.24 1.66-2.53 1.25-0.29-0.41-0.51-0.19-0.5 0.5 0.02 0.69-0.31 1.2-0.72 1.13-0.41-0.06-1.31-0.06-2 0-0.72 0.07-0.93 0.64-0.5 1.35 0.53 0.87 0.24 1.02-1 0.5q-1.74-0.72-2.25 0.77c-0.28 0.82-0.84 1.29-1.25 1.03-0.41-0.26-1.56 0.08-2.55 0.75-1.08 0.73-1.58 1.92-1.25 2.97 0.3 0.96 1.02 1.75 1.6 1.75 0.58 0 0.81 0.45 0.5 1-0.3 0.55-0.1 1 0.45 1 0.55 0 0.78 0.45 0.5 1-0.28 0.55-0.05 1 0.5 1 0.55 0 0.78 0.45 0.5 1-0.28 0.55-0.05 1 0.5 1 0.55 0 0.78 0.45 0.5 1-0.28 0.55 0.18 1.67 1 2.5 0.82 0.82 1.27 1.61 1 1.75-0.28 0.14 1.35 4.3 3.61 9.25 2.26 4.95 5.9 12.82 8.09 17.5 2.19 4.67 4.62 10.07 5.41 12 0.88 2.18 2.07 3.47 3.16 3.42 0.95-0.04 11.74-5.11 23.98-11.25 12.24-6.14 22.47-11.17 22.75-11.17 0.28 0 2.86-1.22 5.75-2.7 2.89-1.49 5.47-2.74 5.75-2.79 0.28-0.05 3.2-1.12 6.5-2.38 3.3-1.25 11.18-3.85 17.5-5.77 6.32-1.91 17.35-4.79 24.5-6.39 7.15-1.59 18.85-3.66 26-4.59 9.03-1.18 20.64-1.72 38-1.77 22.05-0.06 26.42 0.21 37 2.22 6.6 1.26 15.15 3.13 19 4.17 3.85 1.03 10.82 3.28 15.5 5 4.68 1.72 9.06 3.21 9.75 3.31 0.69 0.11 1.25 0.53 1.25 0.94 0 0.41 0.56 0.75 1.25 0.74 0.69-0.01 2.48 0.56 3.99 1.25 1.51 0.69 2.75 1.6 2.75 2.01 0.01 0.41 0.46 0.52 1.01 0.25 0.55-0.28 1-0.05 1 0.5 0 0.55 0.45 0.77 1 0.5 0.55-0.28 1.11-0.16 1.25 0.25 0.14 0.41 3.56 3 7.61 5.75 4.05 2.75 10.1 7.47 13.44 10.5 3.34 3.02 8.74 8.87 12.01 13 3.26 4.12 7.78 10.65 10.03 14.5 2.25 3.85 4.33 7.22 4.63 7.5 0.29 0.27 0.62 0.95 0.74 1.5 0.11 0.55 1.78 4.6 3.71 9 1.93 4.4 4.88 12.5 6.57 18 1.68 5.5 3.7 13.82 4.49 18.5 0.78 4.67 1.88 13.9 2.43 20.5 0.56 6.6 1.14 16.16 1.3 21.24 0.16 5.09-0.05 9.25-0.46 9.25-0.41 0.01-4.01-0.93-8-2.07-3.99-1.15-7.47-1.83-7.75-1.51-0.28 0.32-0.95 0.14-1.5-0.4-0.55-0.53-2.35-1.18-4-1.43-1.65-0.26-4.57-0.93-6.5-1.48-1.93-0.56-3.84-0.81-4.25-0.56-0.41 0.25-1.31 0.14-2-0.26-0.69-0.4-1.93-0.88-2.75-1.07-0.82-0.19-2.18-0.48-3-0.64-0.82-0.16-2.18-0.55-3-0.86-0.82-0.31-10.95-2.17-22.5-4.13-11.55-1.97-26.62-4.24-33.5-5.06-6.87-0.81-19.25-1.93-27.5-2.49-8.25-0.55-23.55-0.98-34-0.97-10.45 0.02-23.5 0.48-29 1.01-5.5 0.54-11.12 0.96-12.5 0.94-1.37-0.02-8.12 0.69-15 1.57-6.87 0.89-19.25 3.13-27.5 4.98-8.25 1.85-18.6 4.47-23 5.82-4.4 1.35-11.49 3.61-15.75 5.04-4.26 1.42-12.14 4.56-17.5 6.98-5.36 2.42-12.45 5.93-15.75 7.81-3.3 1.88-8.6 5.19-11.79 7.35-3.18 2.17-5.77 4.28-5.75 4.69 0.02 0.41-0.52 0.75-1.21 0.74-0.69 0-2.82 1.45-4.75 3.22-1.93 1.78-3.84 3.13-4.25 3.01-0.41-0.12-1.87 1.13-3.25 2.78-1.37 1.65-2.84 2.99-3.25 2.99-0.41-0.01-3.11 2.35-5.99 5.25-2.88 2.89-5.23 5.48-5.22 5.76 0.01 0.27-1.68 2.3-3.76 4.51-2.08 2.2-6.51 8.05-9.84 13-3.34 4.94-7.95 12.93-10.25 17.74-2.31 4.81-5.36 12.24-6.79 16.5-1.44 4.26-3.78 13.15-5.2 19.75-2.32 10.75-2.6 14.24-2.64 33.6-0.05 15.8 0.28 22.04 1.19 23.25 0.69 0.91 1.03 2.77 0.75 4.15-0.28 1.37-0.05 2.5 0.5 2.5 0.55 0 0.83 1.24 0.61 2.75-0.21 1.51 0.63 6.35 1.88 10.75 1.24 4.4 3.46 11.15 4.93 15 1.47 3.85 5.17 11.72 8.22 17.5 3.06 5.77 7.54 13.31 9.96 16.75 2.42 3.44 4.85 6.25 5.4 6.25 0.55 0 0.98 0.56 0.95 1.25-0.02 0.69 1.55 2.49 3.5 4 1.95 1.51 3.34 3.09 3.09 3.5-0.26 0.41 1.21 2.45 3.25 4.52 2.04 2.07 4.05 3.54 4.46 3.25 0.41-0.29 2.44 1.51 4.5 3.99 2.06 2.49 4.2 4.51 4.75 4.5 0.55-0.01 1.56 0.88 2.25 1.99 0.69 1.1 1.93 2 2.75 2 0.82 0 1.49 0.34 1.48 0.75-0.01 0.41 3.48 3.08 7.75 5.93 4.27 2.86 14.3 8.32 22.27 12.15 7.97 3.83 18.55 8.39 23.5 10.14 4.95 1.75 14.4 4.44 21 5.99 6.6 1.54 15.38 3.31 19.5 3.92 4.13 0.62 12.45 1.57 18.5 2.12 6.05 0.56 19.1 1 29 0.99 9.9 0 24.07-0.66 31.5-1.44 7.43-0.79 18-2.41 23.5-3.6 5.5-1.2 14.39-3.47 19.75-5.06 5.36-1.59 14.36-4.73 20-6.97 5.64-2.25 16.1-7.08 23.24-10.75 7.15-3.67 13.79-7.46 14.75-8.42 0.97-0.96 1.97-1.64 2.23-1.5 0.26 0.14 4.43-2.55 9.25-5.97 4.83-3.42 10.81-8.05 13.28-10.29 2.47-2.24 4.72-4.07 5-4.06 0.28 0 4.32-3.7 9-8.21 4.67-4.52 8.49-8.46 8.5-8.74 0-0.29 1.28-2.09 2.85-4 1.57-1.92 2.51-2.81 2.09-1.98-0.42 0.82 0.45 0.37 1.93-1 1.49-1.38 2.91-3.29 3.17-4.25 0.25-0.96 1.25-1.99 2.21-2.28 0.96-0.29 2.08 0.05 2.48 0.75 0.41 0.71 0.75 11.18 0.75 23.28 0.01 12.1 0.35 28.86 0.77 37.25l0.75 15.26 72.5-0.01c-0.02-277.9-0.4-343.85-1.05-351.5-0.57-6.6-2.61-19.88-4.53-29.5-1.98-9.86-5.7-24.05-8.53-32.5-2.93-8.74-7.74-20.21-11.54-27.5-3.57-6.88-8.9-16.1-11.84-20.5-2.93-4.4-9.44-12.5-14.45-18-5.01-5.5-10-10.34-11.08-10.75-1.09-0.41-3.22-2.35-4.73-4.3-1.51-1.95-3.31-3.52-4-3.5-0.69 0.03-1.7-0.85-2.25-1.95-0.55-1.1-1.45-1.78-2-1.5-0.55 0.27-1.21-0.06-1.46-0.75-0.26-0.69-2.39-2.59-4.75-4.22-2.36-1.63-4.63-2.87-5.04-2.75-0.41 0.12-0.75-0.23-0.75-0.78 0-0.55-4.61-3.56-10.25-6.68-5.64-3.13-13.62-7.22-17.75-9.08-4.12-1.87-11.78-4.88-17-6.68-5.22-1.81-15.46-4.7-22.75-6.42-7.29-1.73-13.81-3.07-14.5-2.98-0.69 0.08-1.93-0.13-2.75-0.47-0.82-0.34-6.45-1.35-12.5-2.24-7.53-1.1-20.16-1.72-40-1.96-15.95-0.18-33.5 0.09-39 0.61zm-1427 275.65c0.4 147.26 0.79 268.31 0.86 269 0.11 0.98 8.43 1.25 37.89 1.25h37.75v-538h-77.22z"/>
		<path id="Path 2" class="s1" d="m1500.5 188.52c-3.3 1.37-10.72 5.23-16.5 8.59-5.78 3.36-22.35 12.92-36.84 21.25-14.83 8.53-27.94 16.76-30 18.85-2.01 2.04-4.19 5.19-4.83 7-0.84 2.34-1.2 17.44-1.25 52.04-0.08 45.9 0.03 48.97 1.81 52.5 1.04 2.06 3.18 5.03 4.75 6.6 1.57 1.57 10.06 7.15 18.86 12.41 8.8 5.25 24.78 14.71 35.5 21.01 10.72 6.3 22.54 12.98 26.25 14.84 4.98 2.5 8.06 3.39 11.75 3.39 3.88 0 6.62-0.86 12.25-3.86 3.99-2.12 17.83-10.05 30.75-17.61 12.92-7.57 27.78-16.24 33-19.27 5.22-3.03 11.53-6.97 14-8.75 2.47-1.77 5.4-4.98 6.5-7.12 1.9-3.7 2.02-6.22 2.34-50.89 0.22-30.43-0.03-48.76-0.71-52-0.76-3.61-2.11-6.06-4.84-8.82-2.09-2.1-14.59-10.24-27.79-18.1-13.2-7.86-30.53-18.03-38.5-22.6-7.97-4.57-16.3-9.12-18.5-10.12-2.2-1-5.8-1.82-8-1.81-2.2 0-6.7 1.11-10 2.47z"/>
		<path id="Path 3" class="s2" d="m2899.5 750.5c-7.7 0.69-18.5 2.03-24 2.98-5.5 0.95-15.18 3.29-21.5 5.2-6.32 1.92-15.32 5.06-20 7-4.68 1.94-10.3 4.44-12.5 5.56-2.2 1.12-7.82 4.56-12.5 7.64-4.68 3.09-11.37 8.31-14.88 11.62-3.5 3.3-8.52 8.7-11.14 12-2.63 3.3-6.58 9.38-8.79 13.5-2.21 4.13-5.18 11.33-6.6 16-1.41 4.67-3.11 13-3.76 18.5-0.92 7.71-0.92 12.41-0.01 20.5 0.65 5.77 2.06 13.65 3.12 17.5 1.06 3.85 3.4 10.83 5.2 15.5 1.79 4.67 5.39 11.65 7.99 15.5 2.59 3.85 7.9 10.26 11.8 14.25 3.89 3.99 7.29 7.25 7.57 7.25 0.28 0 2.64 1.6 5.25 3.57 2.61 1.96 5.45 4.09 6.3 4.75 0.86 0.65 3.68 2.31 6.26 3.68 2.59 1.38 4.7 2.84 4.7 3.25-0.01 0.41 0.44 0.52 0.99 0.25 0.55-0.27 0.99 0.06 0.97 0.75-0.01 0.69 0.21 0.91 0.5 0.5 0.29-0.41 4.35 0.83 9.03 2.75 4.68 1.92 12.21 4.58 16.75 5.9 4.54 1.32 14.1 3.39 21.25 4.61 10.64 1.81 16.73 2.2 33.5 2.15 11.28-0.03 22.75-0.26 25.5-0.52 2.75-0.25 5.68-0.69 6.5-0.97 0.82-0.29 3.75-0.82 6.5-1.19 2.75-0.37 11.07-2.19 18.5-4.05 7.43-1.87 17.55-5.02 22.5-7.02 4.95-1.99 11.47-4.87 14.5-6.4 3.03-1.52 10.9-6.37 17.5-10.77 6.6-4.41 15.82-11.37 20.5-15.47 4.68-4.1 11.66-10.79 15.52-14.86 3.85-4.08 9.54-11.24 12.64-15.91 3.09-4.67 7.47-12.21 9.73-16.75 2.26-4.54 5.08-10.84 6.27-14 1.2-3.16 3.06-8.9 4.15-12.75 1.77-6.24 2.03-11.02 2.45-44l0.46-37c-4.43-1.83-8.65-3.06-12.22-3.91-3.57-0.86-14.49-3.14-24.25-5.07-9.76-1.94-18.65-3.52-19.75-3.52-1.1 0-2-0.45-2-1 0-0.55-0.45-0.77-1-0.5-0.55 0.27-5.84-0.41-11.75-1.53-5.91-1.11-11.43-2.06-12.25-2.1-0.82-0.04-6.22-0.69-12-1.43-5.78-0.74-17.14-1.82-25.25-2.4-8.11-0.57-23.64-0.98-34.5-0.91-10.86 0.07-26.05 0.69-33.75 1.37z"/>
	</g>
</svg>