<svg xmlns="http://www.w3.org/2000/svg" version="1.1" xmlns:xlink="http://www.w3.org/1999/xlink" width="1000" height="1000"><g clip-path="url(#SvgjsClipPath1159)"><rect width="1000" height="1000" fill="#ffffff"></rect><g transform="matrix(0.2159827213822894,0,0,0.2159827213822894,100,100)"><svg xmlns="http://www.w3.org/2000/svg" version="1.1" xmlns:xlink="http://www.w3.org/1999/xlink" width="3704" height="3704"><svg version="1.2" xmlns="http://www.w3.org/2000/svg" viewBox="0 0 3704 3704" width="3704" height="3704">
	<style>
		.s0 { fill: #9ea149 } 
		.s1 { fill: #23585d } 
	</style>
	<g id="Background">
		<path id="Path 1" fill-rule="evenodd" class="s0" d="m1856 804.72c11.28 0.21 28.15 1.05 37.5 1.85 9.35 0.8 21.72 1.91 27.5 2.46 5.78 0.55 16.35 2.16 23.5 3.57 7.15 1.41 21.33 4.6 31.5 7.09 10.17 2.5 24.35 6.32 31.5 8.51 7.15 2.18 18.85 6.01 26 8.51 7.15 2.5 17.05 6.09 22 7.98 4.95 1.88 13.72 5.51 19.5 8.06 5.78 2.55 19.5 9.19 30.5 14.76 11 5.57 23.6 12.3 28 14.96 4.4 2.66 16.78 10.68 27.5 17.82 10.72 7.14 23.76 16.18 28.97 20.1 5.21 3.91 16.46 13.39 25 21.06 8.54 7.67 22.28 20.74 30.53 29.03 8.25 8.3 18.76 19.57 23.35 25.05 4.59 5.48 14.08 17.62 21.09 26.97 7 9.35 14.98 20.37 17.72 24.5 2.73 4.12 6.73 10.42 8.86 14 2.14 3.58 5.38 10.1 7.19 14.5 1.82 4.4 3.3 8.11 3.3 8.25-0.01 0.14-0.57 0.24-1.26 0.24-0.69-0.01-3.28-1.97-5.75-4.36-2.47-2.39-10.13-8.16-17-12.81-6.88-4.65-15.65-10.64-19.5-13.31-3.85-2.66-8.57-6.03-10.5-7.48-1.93-1.45-9.13-6.26-16-10.68-6.88-4.42-17-10.74-22.5-14.04-5.5-3.3-13.82-8.04-18.5-10.53-4.68-2.5-12.78-6.75-18-9.46-5.22-2.71-17.82-8.6-28-13.1-10.18-4.5-22.78-9.8-28-11.78-5.22-1.98-16.7-5.75-25.5-8.38-8.8-2.63-20.28-5.94-25.5-7.37-5.22-1.42-14.45-3.75-20.5-5.17-6.05-1.41-12.8-2.99-15-3.5-2.2-0.51-8.95-1.84-15-2.95-6.05-1.11-16.17-2.71-22.5-3.55-6.33-0.85-13.3-1.77-15.5-2.05-2.2-0.27-12.1-0.95-22-1.49-9.9-0.55-31.05-1-47-1.01-15.95 0-33.72 0.46-39.5 1.03-5.78 0.58-18.15 2.19-27.5 3.59-9.35 1.39-24.88 4.12-34.5 6.07-9.63 1.94-24.25 5.25-32.5 7.36-8.25 2.11-21.75 6.11-30 8.89-8.25 2.79-20.4 7.04-27 9.46-6.6 2.42-16.05 6.08-21 8.15-4.95 2.06-17.1 7.8-27 12.76-9.9 4.96-21.15 10.83-25 13.03-3.85 2.21-12.4 7.61-19 11.99-6.6 4.39-20.1 13.74-30 20.79-9.9 7.05-24.53 18.12-32.5 24.6-7.97 6.47-23.99 21.23-35.59 32.79-11.6 11.56-24.9 25.74-29.55 31.52-4.66 5.78-15.26 20.4-23.56 32.5-8.3 12.1-17.9 26.95-21.35 33-3.44 6.05-7.03 12.35-7.98 14-0.95 1.65-3.66 6.37-6.02 10.5-2.37 4.12-6.85 12.9-9.96 19.5-3.12 6.6-7.82 17.85-10.44 25-2.63 7.15-6.7 17.95-9.05 24-2.35 6.05-5.66 15.28-7.36 20.5-1.7 5.22-5.98 21.2-9.51 35.5-3.54 14.3-7.44 32.08-8.68 39.5-1.97 11.84-2.26 17.32-2.35 44.5-0.06 17.05 0.28 35.95 0.73 42 0.46 6.05 0.97 12.35 1.13 14 0.16 1.65 0.57 4.91 0.92 7.25 0.38 2.58 0.23 4.25-0.38 4.25-0.55 0-3.75-2.59-7.11-5.75-3.36-3.16-9.15-9.58-12.87-14.25-3.72-4.67-9.11-12.1-11.99-16.5-2.87-4.4-8.45-14.53-12.4-22.5-3.95-7.97-8.59-18.1-10.32-22.5-1.73-4.4-5.47-15.65-8.31-25-2.85-9.35-6.44-21.95-7.99-28-1.55-6.05-3.75-16.63-4.88-23.5-1.13-6.88-2.62-17.67-3.31-24-0.77-7-1.26-25.38-1.27-47-0.01-31.9 0.22-37.02 2.26-50.5 1.26-8.25 3.42-20.63 4.82-27.5 1.4-6.88 5.47-21.95 9.04-33.5 3.57-11.55 7.18-23.25 8.02-26 0.84-2.75 3.46-9.72 5.81-15.5 2.36-5.78 5.76-13.65 7.55-17.5 1.8-3.85 7.31-14.2 12.25-23 4.94-8.8 11.28-19.74 14.09-24.31 2.81-4.57 9.39-13.99 14.61-20.93 5.22-6.93 11.47-15.34 13.87-18.69 2.41-3.34 8.16-10.8 12.78-16.57 4.63-5.78 15.05-17.03 23.16-25 8.11-7.98 21.64-20.58 30.08-28 8.43-7.42 20.79-17.9 27.47-23.28 6.68-5.38 17.23-13.03 23.44-17 6.22-3.97 13.19-8.43 15.5-9.91 2.31-1.48 11.17-6.71 19.7-11.62 8.53-4.91 19.55-11.12 24.5-13.8 4.95-2.68 13.72-7.06 19.5-9.73 5.78-2.67 15.9-7.04 22.5-9.69 6.6-2.66 19.42-7.51 28.5-10.78 9.08-3.26 23.03-7.97 31-10.46 7.97-2.49 18.55-5.46 23.5-6.61 4.95-1.15 14.17-3.2 20.5-4.55 6.33-1.36 14.88-3.14 19-3.96 4.13-0.82 16.05-2.42 26.5-3.56 10.45-1.14 25.3-2.44 33-2.9 7.7-0.45 23.22-0.65 34.5-0.43zm-1099.28 487.78c0.22 1.65 0.22 4.8 0.01 7-0.22 2.2-0.4 0.85-0.4-3-0.01-3.85 0.17-5.65 0.39-4zm548.56 323.49c0.43 0.01 5.61 4.96 11.5 11.02 5.9 6.05 10.5 11 10.22 11-0.28 0-5.45-4.95-11.5-11.01-6.05-6.06-10.65-11.01-10.22-11.01zm548.22 401.11c3.85-0.06 9.7 0.59 13 1.45 3.3 0.85 12.3 4.73 20 8.61 7.7 3.89 14.45 7.42 15 7.85 0.55 0.43 7.3 4.25 15 8.49 7.7 4.23 19.4 10.87 26 14.75 6.6 3.88 18.08 10.74 25.5 15.26 7.42 4.51 16.88 10.14 21 12.51 4.13 2.37 13.13 8.02 20 12.55 6.88 4.53 14.97 10.37 18 12.98 3.03 2.6 6.84 6.58 8.48 8.84 1.63 2.26 4.56 8.61 10.02 24.11l0.28 86c0.17 53.39-0.1 88.46-0.71 92.5-0.55 3.57-1.89 9.43-2.97 13-1.09 3.57-3.76 9.2-5.93 12.5-2.51 3.8-6.66 8.07-11.31 11.63-4.05 3.1-10.51 7.65-14.36 10.11-3.85 2.46-12.85 7.76-20 11.78-7.15 4.01-20.74 11.84-30.2 17.39-9.46 5.55-23.63 13.77-31.5 18.27-7.86 4.5-15.42 8.81-16.8 9.57-1.37 0.76-8.12 4.67-15 8.67-6.87 4.01-14.97 8.33-18 9.6-3.03 1.26-9.33 3.02-14 3.9-4.67 0.89-10.75 1.58-13.5 1.55-2.75-0.03-6.8-0.46-9-0.95-2.2-0.49-6.03-1.39-8.5-2.01-2.47-0.62-10.58-4.31-18-8.21-7.42-3.9-20.47-10.93-29-15.62-8.53-4.69-18.2-10.17-21.5-12.18-3.3-2.01-10.5-6.15-16-9.19-5.5-3.05-11.8-6.58-14-7.85-2.2-1.27-13.9-7.89-26-14.71-12.1-6.82-25.14-14.51-28.98-17.08-4.08-2.73-9.18-7.37-12.25-11.17-2.89-3.57-6.16-8.86-7.26-11.75-1.11-2.89-2.49-7.39-3.08-10-0.71-3.18-1.06-34.54-1.06-94.75 0.01-78.39 0.21-90.74 1.57-95.75 0.86-3.16 2.97-8.56 4.69-12 1.73-3.44 5.21-8.95 7.74-12.25 3.96-5.16 6.43-7.05 17.62-13.46 7.15-4.1 26.06-15.32 42.01-24.93 15.95-9.61 34.4-20.55 41-24.31 6.6-3.76 12.11-6.83 12.25-6.82 0.14 0.01 3.51-1.93 7.5-4.32 3.99-2.39 13.1-7.31 20.25-10.95 7.15-3.63 16.15-7.79 20-9.25 3.85-1.45 8.8-3 11-3.44 2.2-0.44 7.15-0.85 11-0.92zm-262.77 135.9c0.21 2.47 0.21 6.97 0.01 10-0.2 3.03-0.37 1-0.37-4.5-0.01-5.5 0.16-7.97 0.36-5.5zm712.57 17.72c3.22 3.18 8.92 9.83 12.65 14.78 3.74 4.95 10.31 14.85 14.59 22 4.29 7.15 10.91 19.53 14.71 27.5 3.81 7.97 8.39 18.1 10.2 22.5 1.8 4.4 5.56 14.75 8.35 23 2.78 8.25 6.01 19.28 7.16 24.5 1.15 5.22 2.96 15.35 4.01 22.5 1.06 7.15 2.34 20.87 2.86 30.5 0.52 9.62 0.81 25.15 0.65 34.5-0.16 9.35-1.03 24.43-1.93 33.5-0.91 9.07-2.54 21.45-3.63 27.5-1.09 6.05-2.92 15.28-4.06 20.5-1.14 5.22-3.36 14-4.94 19.5-1.57 5.5-5.74 18.32-9.26 28.5-3.52 10.18-8.04 22.44-10.03 27.25-2 4.81-6.78 14.94-10.62 22.5-3.84 7.56-8.01 15.55-9.26 17.75-1.24 2.2-4.03 6.93-6.19 10.5-2.16 3.57-6.97 11-10.68 16.5-3.72 5.5-10.62 14.95-15.35 21-4.73 6.05-13.93 17.97-20.45 26.5-7.56 9.89-16.33 19.85-24.22 27.5-6.8 6.6-19.34 18.3-27.85 26-8.51 7.7-22.77 19.4-31.68 26-8.92 6.6-19.51 14.29-23.52 17.09-4.02 2.8-10.46 6.9-14.31 9.11-3.85 2.22-11.72 6.73-17.5 10.04-5.78 3.31-13.88 7.71-18 9.77-4.13 2.07-15.82 7.35-26 11.74-10.18 4.39-22.1 9.54-26.5 11.45-4.4 1.91-14.53 5.71-22.5 8.45-7.97 2.74-23.95 7.4-35.5 10.36-11.55 2.96-27.75 6.73-36 8.39-8.25 1.66-19.28 3.7-24.5 4.54-5.22 0.84-18.95 2.43-30.5 3.54-16.77 1.61-28.46 2.02-58 2.01-20.35 0-42.18-0.46-48.5-1-6.33-0.55-17.13-1.7-24-2.56-6.88-0.85-16.1-2.23-20.5-3.06-4.4-0.82-12.28-2.36-17.5-3.4-5.22-1.04-14.68-3.03-21-4.41-6.33-1.39-15.1-3.39-19.5-4.45-4.4-1.06-10.47-2.61-13.5-3.45-3.03-0.83-12.03-3.76-20-6.5-7.97-2.75-16.3-5.66-18.5-6.48-2.2-0.82-12.33-5.17-22.5-9.67-10.18-4.5-20.97-9.48-24-11.07-3.03-1.58-10.68-5.33-17-8.31-6.33-2.99-16.22-8.56-22-12.39-5.78-3.82-13.2-8.65-16.5-10.73-3.3-2.08-9.1-5.86-12.88-8.4-3.79-2.53-12.19-8.66-18.66-13.61-6.48-4.95-18-14.4-25.61-21-7.61-6.6-21.44-19.43-30.73-28.5-9.28-9.07-21.01-21.22-26.06-27-5.04-5.78-15.05-17.7-22.23-26.5-7.18-8.8-15.55-19.82-18.58-24.5-3.04-4.68-7.94-13-10.89-18.5-2.95-5.5-6.18-11.8-9.04-18l3.34 0.78c1.84 0.43 11.66 6.33 21.84 13.11 10.17 6.79 23.67 15.69 30 19.79 6.32 4.1 18.92 11.97 28 17.49 9.07 5.52 20.78 12.54 26 15.6 5.22 3.06 17.6 9.47 27.5 14.24 9.9 4.77 24.75 11.72 33 15.44 8.25 3.72 23.78 9.71 34.5 13.32 10.72 3.6 22.65 7.45 26.5 8.57 3.85 1.11 9.7 2.78 13 3.71 3.3 0.93 9.6 2.56 14 3.63 4.4 1.07 14.3 3.24 22 4.82 7.7 1.59 18.05 3.56 23 4.39 4.95 0.84 18 2.55 29 3.81 17.61 2.02 24.79 2.29 60 2.3 36.12 0 41.6-0.22 56.5-2.28 9.07-1.25 22.91-3.39 30.75-4.75 7.84-1.36 21.79-4.26 31-6.44 9.21-2.19 23.05-5.76 30.75-7.93 7.7-2.18 19.62-5.96 26.5-8.39 6.87-2.44 18.8-7.04 26.5-10.22 7.7-3.17 23.9-10.81 36-16.98 12.1-6.16 29.42-15.58 38.5-20.93 9.07-5.35 21.9-13.38 28.5-17.83 6.6-4.46 16.95-11.77 23-16.25 6.05-4.48 16.18-12.57 22.5-17.98 6.32-5.4 21.41-19.76 33.52-31.92 13.26-13.31 26.6-27.87 33.56-36.6 6.35-7.97 14.26-18.1 17.57-22.5 3.31-4.4 9.76-13.85 14.32-21 4.57-7.15 11.33-17.95 15.03-24 3.7-6.05 9.77-17.07 13.49-24.5 3.71-7.43 10.03-21.6 14.03-31.5 4-9.9 9.52-24.75 12.27-33 2.74-8.25 7.33-23.32 10.19-33.5 2.85-10.18 6.07-22.55 7.14-27.5 1.08-4.95 2.84-14.63 3.93-21.5 1.08-6.88 2.46-21.95 3.08-33.5 0.7-13.26 0.83-31.92 0.36-50.64-0.4-16.3-0.36-29.93 0.11-30.28 0.46-0.35 3.48 1.97 6.7 5.14zm-712.57 5.28c0.21 1.93 0.21 5.53 0 8-0.21 2.47-0.38 0.9-0.39-3.5 0-4.4 0.17-6.43 0.39-4.5zm0 87.5c0.21 2.2 0.21 6.03 0 8.5-0.21 2.47-0.38 0.68-0.38-4 0-4.68 0.17-6.7 0.38-4.5zm0.01 20c0.2 2.75 0.2 6.8-0.01 9-0.21 2.2-0.38-0.05-0.38-5 0.01-4.95 0.18-6.75 0.39-4z"></path>
		<path id="Path 2" class="s1" d="m1822.5 255.07c1.32 0.62-0.89 0.74-6.5 0.37-4.67-0.31-17.28-0.08-28 0.5-10.72 0.58-25.58 1.53-33 2.09-7.42 0.57-15.3 1.25-17.5 1.52-2.2 0.26-11.88 1.37-21.5 2.46-9.63 1.09-20.2 2.4-23.5 2.92-3.3 0.52-13.42 2.12-22.5 3.56-9.08 1.43-22.13 3.71-29 5.06-6.88 1.35-16.55 3.34-21.5 4.42-4.95 1.09-15.3 3.35-23 5.03-7.7 1.67-18.28 4.18-23.5 5.56-5.22 1.38-14.22 3.86-20 5.52-5.78 1.65-15.22 4.5-21 6.32-5.78 1.82-22.65 7.27-37.5 12.1-14.85 4.83-29.25 9.61-32 10.62-2.75 1.01-10.85 4.04-18 6.74-7.15 2.7-15.92 6.11-19.5 7.58-3.58 1.47-9.2 3.82-12.5 5.22-3.3 1.4-7.8 3.34-10 4.33-2.2 0.98-7.38 3.33-11.5 5.23-4.13 1.9-9.96 4.54-12.97 5.86-3.01 1.33-17.18 8.33-31.5 15.55-14.32 7.21-30.75 15.7-36.53 18.85-5.78 3.15-20.17 11.6-32 18.76-11.83 7.17-23.08 14.12-25 15.45-1.92 1.33-10.61 7.23-19.3 13.11-8.69 5.89-19.72 13.18-24.5 16.22-4.79 3.03-12.07 8.01-16.2 11.05-4.12 3.05-12.9 9.55-19.5 14.44-6.6 4.89-17.17 13.04-23.5 18.11-6.33 5.06-15.78 12.66-21 16.89-5.22 4.22-13.55 11.34-18.5 15.81-4.95 4.48-13.72 12.64-19.5 18.15-5.78 5.5-20.64 19.91-33.03 32.02-12.4 12.1-25.3 25.16-28.67 29.01-3.38 3.85-11.9 13.52-18.94 21.5-7.04 7.98-13.71 15.59-14.83 16.92-1.12 1.33-5.18 6.1-9.03 10.6-3.85 4.5-13.12 16.01-20.59 25.58-7.48 9.57-19.14 25.05-25.92 34.4-6.77 9.35-13.66 19.25-15.29 22-1.64 2.75-3.75 6.35-4.7 8-0.95 1.65-7.11 11.77-13.71 22.5-6.59 10.73-13.56 21.98-15.48 25-1.93 3.02-6.34 10.67-9.8 17-3.46 6.33-7.67 13.98-9.34 17-1.67 3.02-6.49 12.48-10.7 21-4.22 8.52-8.82 17.98-10.24 21-1.42 3.02-5.56 12.7-9.2 21.5-3.64 8.8-8.83 21.17-11.53 27.5-2.7 6.33-6.68 16-8.84 21.5-2.17 5.5-5.97 15.4-8.45 22-2.49 6.6-6.34 17.4-8.57 24-2.23 6.6-4.77 14.7-5.64 18-0.87 3.3-1.76 6.67-1.99 7.5-0.22 0.83-1.59 5.77-3.04 11-1.45 5.22-3.98 14.45-5.61 20.5-1.63 6.05-3.65 13.92-4.48 17.5-0.84 3.58-3.31 15.05-5.49 25.5-2.19 10.45-4.63 22.83-5.42 27.5-0.79 4.67-2.55 15.47-3.9 24-1.36 8.53-2.75 17.75-3.09 20.5-0.34 2.75-1.03 7.25-1.54 10-0.51 2.75-1.59 11.08-2.4 18.5-0.81 7.42-2.2 23.4-3.08 35.5q-1.6 22-1.58 60c0.02 20.9 0.49 45.2 1.06 54 0.57 8.8 1.99 25.9 3.15 38 1.16 12.1 3.4 29.2 4.97 38 1.57 8.8 4.44 24.1 6.38 34 1.93 9.9 4.45 21.83 5.6 26.5 1.15 4.67 2.47 10.3 2.95 12.5 0.47 2.2 2.67 10.53 4.88 18.5 2.21 7.97 6.7 22.15 9.97 31.5 3.27 9.35 7.55 21.28 9.5 26.5 1.95 5.22 5.18 13.78 7.18 19 2 5.22 5.22 12.88 7.16 17 1.94 4.13 6 13.58 9.03 21 3.02 7.42 7.07 16.88 8.98 21 1.92 4.13 6.87 14.25 11.01 22.5 4.14 8.25 11.36 21.75 16.05 30 4.69 8.25 11 19.28 14.04 24.5 3.04 5.22 13.16 20.75 22.49 34.5 9.34 13.75 22.07 31.53 28.29 39.5 6.23 7.97 17.92 22.6 25.99 32.5 8.07 9.9 20.79 24.97 28.27 33.5 7.48 8.53 21.94 24.01 32.13 34.41 10.2 10.4 24.62 24.85 32.04 32.11 7.42 7.26 19.8 18.51 27.5 25 7.7 6.49 16.25 13.97 19 16.62 2.75 2.64 8.47 7.63 12.71 11.08 4.23 3.46 14.58 11.83 23 18.62 8.41 6.78 19.79 16.05 25.29 20.59 5.5 4.55 19.9 15.67 32 24.72 12.1 9.05 24.25 18.08 27 20.06 2.75 1.98 7.79 5.55 11.2 7.94 3.42 2.39 13.47 9.53 22.35 15.85 8.88 6.32 18.23 13.12 20.79 15.1 2.57 1.99 13.66 9.68 24.66 17.09 11 7.42 23.47 15.92 27.72 18.9 4.24 2.97 10.29 6.98 13.44 8.91 3.16 1.93 11.61 7.34 18.79 12.04 7.18 4.7 19.05 12.35 26.39 17 7.33 4.65 19.93 12.62 28 17.71 8.06 5.08 17.36 10.96 20.66 13.06 3.3 2.09 9.38 5.95 13.5 8.56 4.13 2.61 13.13 8.16 20 12.33 6.88 4.17 14.97 9.2 18 11.17 3.03 1.98 9.33 5.95 14 8.83 4.67 2.88 16.15 9.82 25.5 15.43 9.35 5.6 21.68 13.15 27.39 16.77 5.71 3.63 14.04 8.96 18.5 11.84 4.46 2.88 9.91 6.18 12.11 7.34 2.2 1.15 5.13 3.47 6.5 5.16 1.74 2.13 3.03 2.86 4.25 2.41 1.59-0.59 1.77-2.79 1.92-24.4 0.09-13.06 0.24-49.85 0.32-81.75 0.09-31.9 0.47-59.8 0.85-62 0.38-2.2 2.77-10.3 5.31-18 2.64-7.98 6.78-17.87 9.64-23 2.75-4.95 7.08-12.14 9.61-15.97 2.53-3.83 6.85-9.41 9.6-12.39 2.75-2.98 8.38-8.22 12.5-11.63 4.13-3.42 11.33-8.7 16-11.74 4.67-3.04 16.38-10.16 26-15.81 9.63-5.66 27.4-15.42 39.5-21.71 12.1-6.28 29.65-15.51 39-20.5 9.35-5 21.31-11.6 26.58-14.67 5.33-3.11 9.43-6.13 9.25-6.83-0.18-0.69-2.02-2.13-4.08-3.22-2.06-1.08-4.09-1.75-4.5-1.5-0.41 0.26-0.53 0.25-0.25-0.03 0.28-0.28-4.79-3.94-11.25-8.14-6.46-4.2-19.62-12.59-29.25-18.64-9.62-6.05-21.1-13.27-25.5-16.04-4.4-2.77-8.52-5.07-9.15-5.11-0.64-0.04-1.02-0.29-0.84-0.57 0.17-0.28-4.03-3.25-9.35-6.62-5.31-3.36-18.21-11.49-28.66-18.07-10.45-6.59-26.87-17.13-36.5-23.43-9.62-6.31-19.08-12.46-21-13.66-1.92-1.21-3.84-1.98-4.25-1.71-0.41 0.27-0.53 0.27-0.25-0.01 0.28-0.28-7.43-5.79-17.13-12.25-9.7-6.46-18.13-11.6-18.75-11.42-0.62 0.19-0.78-0.04-0.36-0.5 0.42-0.45-0.48-1.59-2-2.52-1.52-0.94-3.21-1.43-3.76-1.09-0.55 0.33-0.66 0.19-0.24-0.31 0.42-0.5-0.48-1.67-2-2.6-1.52-0.94-3.21-1.43-3.76-1.09-0.55 0.33-0.66 0.19-0.24-0.31 0.42-0.5-1.83-2.57-5-4.61-3.17-2.03-6.1-3.49-6.51-3.25-0.41 0.25-0.64 0.04-0.5-0.46 0.14-0.51-5.37-4.69-12.25-9.31-6.87-4.61-14.97-10.14-18-12.28-3.03-2.14-12.7-8.91-21.5-15.03-8.8-6.12-22.3-15.68-30-21.23-7.7-5.55-14.45-9.83-15-9.51-0.55 0.33-0.66 0.29-0.25-0.07 0.41-0.36-0.49-1.7-2-2.97-1.51-1.27-7.42-5.65-13.14-9.75-5.71-4.09-10.89-7.29-11.5-7.11-0.61 0.19-0.79-0.04-0.4-0.5 0.39-0.45-5.01-5.11-12-10.35-6.99-5.24-18.33-14.06-25.21-19.6-6.87-5.55-19.03-15.88-27-22.97-7.97-7.09-22.83-20.81-33-30.48-10.17-9.68-20.51-20.03-22.97-23.01-2.46-2.98-5.39-6.33-6.5-7.45-1.12-1.12-5.63-6.25-10.03-11.4-4.4-5.15-11.39-13.68-15.54-18.97-4.14-5.28-10.24-13.43-13.54-18.1-3.3-4.67-9.87-14.58-14.6-22-4.72-7.42-10.83-17.78-13.57-23-2.75-5.22-7.95-15.12-11.57-22-3.62-6.87-8.79-17.67-11.49-24-2.7-6.33-7.41-18.47-10.48-27-3.07-8.53-7.13-20.9-9.03-27.5-1.91-6.6-4.19-14.7-5.09-18-0.89-3.3-2.7-12.53-4.03-20.5-1.33-7.97-3.13-21.25-4.01-29.5-0.87-8.25-2.02-21.08-2.56-28.5-0.54-7.42-0.98-22.28-0.98-33 0-10.72 0.47-25.8 1.03-33.5 0.56-7.7 1.25-17.15 1.52-21 0.28-3.85 0.71-8.35 0.96-10 0.25-1.65 0.9-6.83 1.43-11.5 0.54-4.67 1.87-13.9 2.97-20.5 1.09-6.6 3.13-17.4 4.54-24 1.4-6.6 3.88-17.17 5.51-23.5 1.63-6.33 5.84-20.05 9.36-30.5 3.52-10.45 8.21-23.95 10.42-30 2.21-6.05 5.15-13.7 6.53-17 1.39-3.3 3.74-8.7 5.23-12 1.48-3.3 5.36-11.62 8.61-18.5 3.26-6.87 6.98-14.52 8.28-17 1.3-2.48 4.16-7.87 6.36-12 2.2-4.12 5.76-10.87 7.92-15 2.15-4.12 7.83-13.35 12.61-20.5 4.79-7.15 10.13-15.02 11.88-17.5 1.75-2.48 4.12-5.85 5.28-7.5 1.16-1.65 3.89-5.48 6.07-8.5 2.18-3.02 6.87-9.33 10.41-14 3.55-4.67 10.59-13.45 15.64-19.5 5.05-6.05 14.31-16.65 20.56-23.56 6.25-6.91 14.51-15.46 18.34-19 3.84-3.54 10.81-10.01 15.5-14.37 4.69-4.36 12.82-12.01 18.06-17 5.25-4.99 12.4-11.55 15.91-14.57 3.5-3.02 8.16-7.08 10.35-9 2.19-1.92 6.73-5.65 10.1-8.27 3.36-2.63 14.89-10.72 25.61-17.98 10.72-7.27 22.42-15.04 26-17.28 3.58-2.23 7.85-4.75 9.5-5.59 1.65-0.85 8.17-4.59 14.5-8.33 6.33-3.73 15.55-9.15 20.5-12.04 4.95-2.89 11.92-6.52 15.5-8.07 3.58-1.54 6.95-3.12 7.5-3.52 0.55-0.39 9.1-4.31 19-8.7 9.9-4.4 24.97-10.8 33.5-14.23 8.53-3.42 18.42-7.26 22-8.52 3.58-1.25 14.6-5.05 24.5-8.44 9.9-3.38 24.97-7.96 33.5-10.18 8.53-2.22 19.1-4.85 23.5-5.85 4.4-0.99 14.97-3.01 23.5-4.48 8.53-1.47 17.97-3.08 21-3.56 3.03-0.49 11.58-1.57 19-2.41 7.42-0.84 15.75-1.77 18.5-2.06 2.75-0.29 10.4-0.97 17-1.5 6.6-0.54 31.13-1.01 54.5-1.06 23.38-0.04 48.13 0.4 55 0.99 6.88 0.59 16.55 1.51 21.5 2.04 4.95 0.54 15.3 1.9 23 3.04 7.7 1.13 15.13 2.25 16.5 2.48 1.38 0.23 6.33 1.1 11 1.93 4.67 0.84 14.13 2.63 21 3.98 6.88 1.36 15.42 3.16 19 4 3.58 0.85 11 2.87 16.5 4.49 5.5 1.63 13.6 4.07 18 5.43 4.4 1.36 17.68 5.86 29.5 10 11.82 4.14 25.1 8.88 29.5 10.54 4.4 1.66 11.6 4.57 16 6.46 4.4 1.89 12.5 5.48 18 7.97 5.5 2.49 15.63 7.2 22.5 10.47 6.88 3.27 19.36 9.84 27.75 14.6 8.39 4.76 18.51 10.77 22.5 13.36 3.99 2.6 10.21 6.53 13.82 8.75 3.62 2.22 14.42 9.52 24 16.21 9.59 6.7 25.08 18.55 34.43 26.34 9.35 7.79 22.82 19.64 29.94 26.33 7.11 6.69 16.34 15.31 20.5 19.16 4.16 3.85 11.79 10.83 16.96 15.5 5.17 4.68 14.14 13.9 19.92 20.5 5.78 6.6 13.91 16.5 18.07 22 4.15 5.5 12.52 16.98 18.59 25.5 6.08 8.52 15.36 22.48 20.64 31 5.27 8.52 11.61 18.88 14.09 23 2.47 4.13 5.52 9.52 6.77 12 1.24 2.48 5.98 11.02 10.53 19 4.55 7.97 10.39 19.67 12.98 26 2.59 6.33 5.34 12.96 6.11 14.75 0.77 1.79 1.4 3.7 1.4 4.25 0 0.55 1.86 5.39 4.13 10.75 2.27 5.36 5.44 13.35 7.05 17.75 1.61 4.4 4.25 11.83 5.88 16.5 1.63 4.67 4.71 14.8 6.84 22.5 2.13 7.7 5.02 18.95 6.44 25 1.41 6.05 3.24 13.92 4.05 17.5 0.82 3.58 2.62 14.83 4.01 25 1.39 10.17 3.24 26.83 4.11 37 0.87 10.17 1.89 23.09 2.28 28.71l0.71 10.21 412.5 0.58c0.24-22.47 0.23-29.67 0.13-30.5-0.1-0.83-0.22-3.75-0.26-6.5-0.04-2.75-0.92-15.12-1.95-27.5-1.03-12.37-2.77-28.35-3.86-35.5-1.09-7.15-2.7-17.5-3.57-23-0.87-5.5-1.75-11.12-1.95-12.5-0.2-1.37-1.5-9.03-2.88-17-1.38-7.97-3.88-21.03-5.54-29-1.67-7.97-5.11-22.6-7.66-32.5-2.54-9.9-5.45-21.15-6.45-25-1.01-3.85-3.41-12.85-5.34-20-1.93-7.15-4.2-15.48-5.03-18.5-0.84-3.02-4.9-15.17-9.02-27-4.12-11.83-9.8-27.58-12.62-35-2.82-7.42-5.74-14.85-6.48-16.5-0.74-1.65-4.11-9.52-7.49-17.5-3.37-7.98-6.76-15.85-7.51-17.5-0.76-1.65-3.82-8.62-6.82-15.5-2.99-6.87-7.98-17.56-11.07-23.75-3.1-6.19-9.51-17.89-14.26-26-4.75-8.11-10.67-18.12-13.17-22.25-2.49-4.12-7.53-12-11.19-17.5-3.66-5.5-8.39-12.92-10.52-16.5-2.13-3.58-8.11-13.02-13.29-21-5.19-7.98-13.06-19.45-17.5-25.5-4.44-6.05-9.72-13.02-11.72-15.5-2-2.48-9.9-12.37-17.56-21.98-7.66-9.62-19.74-24.24-26.86-32.5-7.12-8.26-20.89-23.79-30.61-34.52-9.71-10.73-23.05-24.9-29.64-31.5-6.6-6.6-13.58-13.35-15.52-15-1.93-1.65-10.44-9.36-18.9-17.14-8.47-7.77-21.42-19.25-28.78-25.5-7.37-6.25-16.21-13.61-19.66-16.36-3.44-2.75-9.98-7.92-14.52-11.5-4.55-3.57-17.78-13.7-29.4-22.5-11.63-8.8-26.43-19.37-32.9-23.5-6.47-4.12-15.22-9.85-19.45-12.72-4.22-2.86-12.63-8.55-18.68-12.62-6.05-4.08-15.95-10.34-22-13.93-6.05-3.58-15.28-8.87-20.5-11.75-5.22-2.88-17.6-9.59-27.5-14.91-9.9-5.32-24.97-13.12-33.5-17.33-8.53-4.2-22.7-10.87-31.5-14.81-8.8-3.94-20.28-8.97-25.5-11.19-5.22-2.22-14.68-6.02-21-8.46-6.32-2.43-19.82-7.35-30-10.92-10.18-3.58-24.12-8.32-31-10.53-6.87-2.21-14.97-4.91-18-6.01-3.03-1.1-8.43-2.87-12-3.93-3.57-1.06-10.1-2.76-14.5-3.77-4.4-1.02-12.5-3.2-18-4.85-5.5-1.65-17.87-4.89-27.5-7.19-9.62-2.31-19.97-4.81-23-5.58-3.03-0.76-7.53-1.57-10-1.8-2.47-0.22-4.95-0.67-5.5-0.98-0.55-0.32-8.65-1.98-18-3.68-9.35-1.71-18.58-3.33-20.5-3.61-1.92-0.28-7.78-1.16-13-1.96-5.22-0.8-12.65-1.9-16.5-2.45-3.85-0.54-10.15-1.43-14-1.96-3.85-0.54-11.28-1.26-16.5-1.59-5.22-0.34-17.15-1.56-26.5-2.72-11.49-1.43-23.07-2.14-35.75-2.18-10.31-0.04-18.75-0.41-18.75-0.82 0-0.41-16.99-0.72-37.75-0.68-24.16 0.05-37.03 0.41-35.75 1zm24.5 950.03c-3.85 0.38-9.97 2.08-15 4.15-4.67 1.92-18.62 9.03-31 15.8-12.37 6.76-35.55 19.79-51.5 28.96-15.95 9.16-38 22.19-49 28.96-11 6.76-21.73 13.7-23.83 15.41-2.11 1.72-5.56 5.37-7.66 8.12-2.1 2.75-4.99 7.92-6.42 11.5-1.44 3.58-3.39 9.88-4.35 14-1.58 6.83-1.74 15.33-1.72 95 0.01 64.72 0.33 89.39 1.25 94.75 0.67 3.99 1.97 8.71 2.87 10.5 0.9 1.79 3.03 5.01 4.75 7.16 1.71 2.15 6.48 6.63 10.61 9.95 4.13 3.32 13.35 9.71 20.5 14.22 7.15 4.5 21.78 13.47 32.5 19.93 10.72 6.46 24 14.57 29.5 18.01 5.5 3.44 17.2 10.43 26 15.52 8.8 5.08 20.72 12.17 26.5 15.73 5.78 3.57 12.08 7.49 14 8.72 1.92 1.23 6.2 3.82 9.5 5.74 3.3 1.92 8.47 4.85 11.5 6.5 3.03 1.66 8.2 4.57 11.5 6.48 3.3 1.91 8.12 4.78 10.72 6.38 2.59 1.6 9.12 5.59 14.5 8.86 5.38 3.27 14.06 8.72 19.28 12.09 5.22 3.38 17.38 11.08 27 17.11 9.62 6.04 23.13 14.28 30 18.31 6.87 4.04 21.41 12.56 32.3 18.94 10.9 6.38 26.57 16.1 34.83 21.6 8.27 5.5 23.88 15.7 34.7 22.67 10.82 6.96 25.88 16.64 33.47 21.5 7.58 4.86 25.13 16.38 39 25.6 13.86 9.22 31.27 21.01 38.7 26.19 7.43 5.18 17.78 12.34 23 15.91 5.22 3.58 20.97 14.32 35 23.87 14.03 9.55 28.43 19.6 32.01 22.31 3.58 2.72 13.25 10.38 21.5 17.01 8.24 6.63 23.8 19.23 34.57 28 10.77 8.77 27.42 22.98 37 31.58 9.58 8.6 20.17 18.5 23.53 22 3.36 3.5 10.76 11.53 16.44 17.86 5.68 6.33 13.54 15.55 17.48 20.5 3.93 4.95 11.83 15.39 17.56 23.19 5.73 7.81 12.4 17.03 14.84 20.5 2.43 3.47 7.41 10.81 11.06 16.31 3.66 5.5 8.83 13.82 11.49 18.5 2.67 4.68 7.86 14.57 11.55 22 3.68 7.43 8.07 16.43 9.74 20 1.67 3.57 4.83 10.78 7.02 16 2.18 5.22 7.21 18.95 11.16 30.5 3.96 11.55 8.24 24.38 9.52 28.5 1.27 4.13 2.66 8.85 3.08 10.5 0.42 1.65 0.88 3.45 1.03 4 0.15 0.55 1.4 5.95 2.79 12 1.39 6.05 2.99 13.93 3.56 17.5 0.57 3.57 1.98 14.6 3.13 24.5 1.54 13.37 2.21 26.75 2.6 52 0.48 31.92 0.36 35.47-2.11 58-1.44 13.2-3.25 28.28-4.02 33.5-0.78 5.22-2.78 16.47-4.45 25-1.67 8.53-5.51 24.5-8.52 35.5-3.02 11-7.93 26.97-10.91 35.5-2.98 8.53-6.78 19.1-8.45 23.5-1.68 4.4-4.37 11.15-5.98 15-1.62 3.85-6.82 14.65-11.55 24-4.73 9.35-13.17 25.55-18.74 36-5.58 10.45-11.39 20.57-12.9 22.5-1.52 1.93-3.78 5.53-5.02 8-1.25 2.47-5.05 8.32-8.45 13-3.4 4.68-9.4 13.22-13.33 19-3.94 5.78-8.34 11.85-9.8 13.5-1.45 1.65-3.94 4.91-5.53 7.25-1.6 2.34-3.49 4.59-4.21 5-0.72 0.41-4.19 4.57-7.7 9.25-3.51 4.68-14.51 16.77-24.44 26.88-9.93 10.1-24.12 24.03-31.55 30.94-7.43 6.92-18.7 16.87-25.05 22.13-6.35 5.25-15.05 12.48-19.33 16.05-4.28 3.57-9.44 7.76-11.45 9.31-2.02 1.54-11.32 7.9-20.67 14.12-9.35 6.22-23.53 15.26-31.5 20.09-7.97 4.84-16.3 9.77-18.5 10.97-2.2 1.2-5.8 3.31-8 4.7-2.2 1.39-5.8 3.41-8 4.5-2.2 1.09-9.63 4.96-16.5 8.59-6.88 3.63-17.68 8.93-24 11.77-6.32 2.84-15.55 6.87-20.5 8.96-4.95 2.08-17.55 7.03-28 10.99-10.45 3.96-24.4 8.93-31 11.05-6.6 2.13-16.95 5.19-23 6.81-6.05 1.62-15.28 4.17-20.5 5.66-5.22 1.49-14.45 3.78-20.5 5.09-6.05 1.32-11.9 2.64-13 2.95-1.1 0.3-5.6 1.2-10 1.99-4.4 0.78-11.38 2.11-15.5 2.95-4.13 0.84-9.75 1.95-12.5 2.47-2.75 0.53-9.28 1.63-14.5 2.46-5.22 0.83-13.78 1.95-19 2.49-5.22 0.55-13.1 1.27-17.5 1.61-4.4 0.35-10.92 0.78-14.5 0.97-3.58 0.19-15.28 0.67-26 1.06-12.21 0.45-27.16 0.26-40-0.5-11.28-0.66-29.95-2.08-41.5-3.16-11.55-1.08-25.28-2.63-30.5-3.45-5.22-0.82-12.42-2.14-16-2.93-3.58-0.79-11.45-2.4-17.5-3.56-6.05-1.17-12.46-2.31-14.25-2.54-1.79-0.23-10.11-2.22-18.5-4.42-8.39-2.19-18.4-4.86-22.25-5.93-3.85-1.06-16.67-5.15-28.5-9.08-11.83-3.92-29.6-10.08-39.5-13.67-9.9-3.59-23.85-9.13-31-12.3-7.15-3.17-18.85-8.58-26-12.02-7.15-3.44-15.47-7.71-18.5-9.49-3.03-1.79-10.9-6.38-17.5-10.22-6.6-3.83-20.33-12.05-30.5-18.27-10.17-6.21-21.65-13.42-25.5-16.01-3.85-2.6-15.55-11.15-26-19.01-10.45-7.87-22.6-17.25-27-20.86-4.4-3.61-14.53-12.47-22.5-19.69-7.97-7.22-22.23-21.19-31.68-31.04-9.45-9.85-20.16-21.51-23.81-25.91-3.65-4.4-9.8-12.05-13.66-17-3.87-4.95-11.59-15.3-17.15-23-5.56-7.7-13.89-19.62-18.5-26.5-4.62-6.87-10.21-16.1-12.43-20.5-2.23-4.4-6.17-11.82-8.76-16.5-2.59-4.68-8.34-15.7-12.77-24.5-4.44-8.8-9.07-18.25-10.29-21-1.23-2.75-3.1-7.03-4.17-9.5-1.07-2.47-5.44-14.18-9.73-26-4.29-11.82-9.49-27.57-11.56-35-2.07-7.43-5.27-18.9-7.11-25.5-1.84-6.6-4.47-16.95-5.83-23-1.36-6.05-3.19-15.05-4.06-20-0.87-4.95-2.7-15.53-4.05-23.5-1.75-10.26-2.65-20.2-3.07-34-0.38-12.53-0.92-18.96-1.51-18-0.6 0.97-0.82-1.62-0.64-7.25l0.28-8.75-416-0.01c1.13 32.95 1.93 48.14 2.5 55.01 0.57 6.88 1.26 14.97 1.52 18 0.26 3.03 1.18 12.25 2.04 20.5 0.85 8.25 3.8 28.28 6.53 44.5 2.74 16.22 5.67 33.1 6.52 37.5 0.85 4.4 1.94 9.35 2.43 11 0.49 1.65 1.09 4.13 1.33 5.5 0.25 1.38 2.08 9.93 4.08 19 2 9.07 4.91 21.22 6.49 27 1.57 5.78 4.27 15 6 20.5 1.72 5.5 3.98 12.7 5 16 1.03 3.3 3.49 11.18 5.47 17.5 1.99 6.32 4.02 12.4 4.5 13.5 0.49 1.1 1.91 4.93 3.15 8.5 1.24 3.57 3.33 9.2 4.64 12.5 1.31 3.3 2.81 6.9 3.31 8 0.51 1.1 3.38 8.07 6.37 15.5 2.99 7.43 7.21 17.55 9.39 22.5 2.17 4.95 6.25 13.5 9.05 19 2.8 5.5 8.25 16.53 12.11 24.5 3.85 7.97 10.29 20.8 14.31 28.5 4.01 7.7 12.53 22.78 18.94 33.5 6.4 10.72 15.7 25.8 20.66 33.5 4.95 7.7 14.96 22.32 22.23 32.5 7.26 10.18 19.31 26.15 26.76 35.5 7.45 9.35 18.06 22.4 23.58 29 5.51 6.6 17.45 20.32 26.53 30.5 9.08 10.18 18.98 21.2 22 24.5 3.02 3.3 12.03 12.54 20.03 20.54 7.99 7.99 18.54 18.11 23.45 22.5 4.9 4.38 15.7 14.21 24 21.84 8.29 7.64 18.99 17.09 23.76 21 4.78 3.92 13.33 10.98 19 15.69 5.68 4.72 18.65 14.87 28.82 22.58 10.17 7.7 23.9 17.77 30.5 22.37 6.6 4.61 20.78 14.28 31.5 21.49 10.72 7.21 22.87 15.16 27 17.65 4.12 2.5 13.58 8.15 21 12.56 7.42 4.41 18.9 10.85 25.5 14.3 6.6 3.45 17.85 9.29 25 12.98 7.15 3.7 16.6 8.31 21 10.26 4.4 1.94 12.5 5.66 18 8.25 5.5 2.6 13.83 6.51 18.5 8.7 4.67 2.19 15.47 6.89 24 10.44 8.53 3.56 21.35 8.91 28.5 11.9 7.15 2.99 24.92 9.53 39.5 14.53 14.58 5 27.85 9.44 29.5 9.86 1.65 0.41 5.92 1.69 9.5 2.84 3.58 1.15 12.35 3.71 19.5 5.7 7.15 1.99 15.47 4.34 18.5 5.21 3.03 0.87 8.2 2.23 11.5 3.03 3.3 0.79 6.67 1.62 7.5 1.84 0.83 0.22 10.05 2.69 20.5 5.47 10.45 2.79 22.15 5.76 26 6.6 3.85 0.84 10.37 2.12 14.5 2.84 4.12 0.72 16.72 2.91 28 4.86 11.28 1.95 24.1 4.04 28.5 4.65 4.4 0.61 10.25 1.32 13 1.59 2.75 0.26 10.17 1.13 16.5 1.92 6.33 0.79 17.58 1.92 25 2.51 7.42 0.59 15.97 1.32 19 1.63 3.03 0.31 6.85 0.68 8.5 0.82 1.65 0.14 12.45 0.57 24 0.94 11.55 0.38 28.65 0.82 38 0.98 9.35 0.16 31.4-0.06 49-0.47 17.6-0.42 35.37-0.99 39.5-1.27 4.12-0.28 14.25-1.2 22.5-2.04 8.25-0.85 19.72-2.02 25.5-2.6 5.78-0.59 17.03-1.96 25-3.05 7.97-1.09 19-2.66 24.5-3.49 5.5-0.82 12.03-1.73 14.5-2.02 2.47-0.29 5.51-0.73 6.75-0.98 1.24-0.25 4.95-0.9 8.25-1.45 3.3-0.55 7.24-1.24 8.75-1.54 1.51-0.29 10.4-2.36 19.75-4.59 9.35-2.23 26-6.26 37-8.97 11-2.7 27.87-7.09 37.5-9.76 9.62-2.67 22.9-6.54 29.5-8.61 6.6-2.07 14.93-4.64 18.5-5.72 3.57-1.07 8.07-2.54 10-3.27 1.93-0.73 8.9-3.23 15.5-5.55 6.6-2.33 15.6-5.6 20-7.28 4.4-1.68 15.65-6.31 25-10.28 9.35-3.97 23.41-10.19 31.25-13.82 7.84-3.64 14.47-6.61 14.75-6.61 0.28 0 7.59-3.42 16.25-7.59 8.66-4.17 22.05-10.77 29.75-14.65 7.7-3.88 18.95-9.84 25-13.23 6.05-3.4 18.2-10.37 27-15.49 8.8-5.12 17.12-10.03 18.5-10.91 1.37-0.88 3.4-2.1 4.5-2.72 1.1-0.62 6.72-3.94 12.5-7.38 5.78-3.44 11.96-7.32 13.75-8.64 1.79-1.31 3.59-2.4 4-2.41 0.41-0.01 1.87-0.93 3.25-2.03 1.37-1.11 8.27-5.94 15.32-10.73 7.05-4.8 13.61-9.17 14.59-9.72 0.97-0.55 2.85-1.8 4.18-2.77 1.33-0.98 7.4-5.48 13.5-10 6.09-4.53 12.8-9.58 14.9-11.23 2.09-1.65 8.17-6.6 13.51-11 5.34-4.4 12.07-9.8 14.96-12 2.9-2.2 5.78-4.45 6.4-5 0.63-0.55 4.51-3.55 8.64-6.68 4.12-3.12 9.75-7.8 12.5-10.4 2.75-2.6 11.75-10.66 20-17.92 8.25-7.26 23.13-21.48 33.07-31.6 9.94-10.12 21.93-22.45 26.64-27.4 4.72-4.95 13.02-13.95 18.46-20 5.44-6.05 11.08-12.35 12.54-14 1.46-1.65 3.47-3.97 4.47-5.15 1-1.18 6.32-7.88 11.82-14.89 5.5-7.01 15.57-19.76 22.39-28.35 6.81-8.59 18.28-24.33 25.5-35 7.21-10.66 16.17-23.94 19.91-29.5 3.74-5.56 8.53-13.04 10.65-16.61 2.12-3.57 8-13.93 13.07-23 5.07-9.07 11.5-20.55 14.29-25.5 2.79-4.95 6.4-11.47 8.01-14.5 1.62-3.03 6.47-12.47 10.78-21 4.31-8.53 7.84-15.95 7.84-16.5 0-0.55 2.45-6.18 5.43-12.5 2.99-6.32 7.1-15.1 9.14-19.5 2.04-4.4 4.5-10.25 5.47-13 0.97-2.75 2.68-7.03 3.82-9.5 1.13-2.47 3.27-7.65 4.76-11.5 1.48-3.85 3.5-8.8 4.48-11 0.97-2.2 2.64-6.47 3.69-9.5 1.05-3.03 5.56-16.3 10.02-29.5 4.46-13.2 9.9-30.75 12.09-39 2.19-8.25 4.27-16.57 4.62-18.5 0.35-1.93 1.7-7.55 3-12.5 1.3-4.95 3.94-16.87 5.87-26.5 1.93-9.62 3.78-19.75 4.11-22.5 0.33-2.75 1.03-7.25 1.54-10 0.52-2.75 1.85-10.85 2.96-18 1.12-7.15 2.27-14.12 2.57-15.5 0.31-1.37 0.99-6.32 1.52-11 0.54-4.68 1.2-10.53 1.48-13 0.28-2.47 1.46-14.85 2.63-27.5 1.62-17.51 2.19-31.71 2.38-59.5 0.13-20.07-0.13-43.03-0.58-51-0.45-7.97-1.33-19.9-1.94-26.5-0.62-6.6-1.32-13.57-1.56-15.5-0.25-1.93-0.65-6.2-0.91-9.5-0.25-3.3-0.92-9.37-1.49-13.5-0.57-4.12-1.96-13.12-3.08-20-1.13-6.87-2.7-16.1-3.5-20.5-0.8-4.4-2.38-12.95-3.5-19-1.12-6.05-2.69-13.47-3.48-16.5-0.8-3.03-3.48-14.05-5.96-24.5-2.48-10.45-5.43-22.37-6.56-26.5-1.13-4.12-4.96-16.72-8.51-28-3.54-11.28-7.3-22.97-8.35-26-1.05-3.03-4.84-13.15-8.41-22.5-3.58-9.35-8.9-22.62-11.81-29.5-2.91-6.87-13.91-29.6-24.44-50.5-10.53-20.9-21.16-41.37-23.64-45.5-2.47-4.12-10.23-16.5-17.26-27.5-7.02-11-15.5-24.05-18.84-29-3.34-4.95-11.34-15.97-17.77-24.5-6.42-8.53-13.32-17.41-15.31-19.75-1.99-2.34-3.84-4.03-4.12-3.75-0.28 0.28-0.28 0.16 0-0.25 0.27-0.41-0.73-2.32-2.23-4.25-1.5-1.92-8.59-10.46-15.75-18.98-7.16-8.51-16.4-19.08-20.52-23.5-4.13-4.41-7.84-7.9-8.25-7.77-0.41 0.14-0.54-0.09-0.29-0.5 0.25-0.41-6.87-8.62-15.83-18.25-8.95-9.62-22.55-23.4-30.21-30.61-7.65-7.21-19.04-17.78-25.3-23.5-6.26-5.71-19.78-17.81-30.05-26.89-10.27-9.07-24.95-21.71-32.62-28.08-7.67-6.37-21.83-17.64-31.45-25.04-9.63-7.39-19.97-15.22-23-17.38-3.03-2.17-9.86-7.33-15.2-11.47-5.33-4.14-17.88-13.15-27.89-20.03-10-6.87-23.42-16.13-29.8-20.56-6.39-4.43-15.21-10.54-19.61-13.58-4.4-3.04-12.95-8.9-19-13.01-6.05-4.12-16.4-11.32-23-16-6.6-4.69-16.84-11.74-22.75-15.68-5.91-3.95-10.97-6.95-11.25-6.67-0.28 0.28-0.27 0.16 0.01-0.25 0.28-0.41-0.73-1.51-2.25-2.44-1.52-0.94-3.21-1.43-3.76-1.09-0.55 0.33-0.66 0.19-0.24-0.31 0.42-0.5-0.48-1.67-2-2.6-1.52-0.94-3.1-1.5-3.51-1.25-0.41 0.24-0.64 0.03-0.5-0.46 0.14-0.5-8.62-6.69-19.46-13.75-10.84-7.07-24.69-16-30.78-19.85-6.08-3.85-15.95-10.15-21.91-14-5.97-3.85-14.84-9.4-19.73-12.33-4.88-2.93-15.17-9.18-22.87-13.9-7.7-4.71-20.3-12.39-28-17.07-7.7-4.67-14.52-8.54-15.15-8.6-0.64-0.05-1-0.32-0.8-0.6 0.19-0.28-1.31-1.32-3.35-2.33-2.03-1.01-8.42-4.56-14.2-7.89-5.78-3.34-14.55-8.55-19.5-11.59-4.95-3.03-9.52-5.56-10.15-5.6-0.64-0.05-1.02-0.31-0.84-0.59 0.17-0.28-12.58-8.27-28.35-17.78-15.76-9.5-40.59-24.52-55.16-33.39-14.58-8.87-31-18.79-36.5-22.05-5.5-3.25-14.72-8.77-20.5-12.25-5.78-3.48-10.95-6.08-11.5-5.77-0.55 0.31-0.68 0.15-0.28-0.35 0.39-0.5-2.08-2.65-5.5-4.78-3.42-2.13-7.8-4.7-9.72-5.72-1.92-1.01-3.84-1.63-4.25-1.38-0.41 0.26-0.54 0.13-0.27-0.28 0.26-0.41-5.48-4.29-12.75-8.62-7.28-4.33-15.48-9.25-18.23-10.92-2.75-1.68-10.85-6.14-18-9.93-7.15-3.78-19.08-9.72-26.5-13.19-7.42-3.47-16.88-7.23-21-8.35-4.13-1.12-8.4-2.21-9.5-2.42-1.1-0.2-4.92-0.08-8.5 0.28z"></path>
	</g>
</svg></svg></g></g><defs><clipPath id="SvgjsClipPath1159"><rect width="1000" height="1000" x="0" y="0" rx="350" ry="350"></rect></clipPath></defs></svg>